<?xml version="1.0" standalone="no"?>
<!DOCTYPE svg PUBLIC "-//W3C//DTD SVG 20010904//EN"
 "http://www.w3.org/TR/2001/REC-SVG-20010904/DTD/svg10.dtd">
<svg version="1.0" xmlns="http://www.w3.org/2000/svg"
 width="111.000000pt" height="107.000000pt" viewBox="0 0 111.000000 107.000000"
 preserveAspectRatio="xMidYMid meet">

<g transform="translate(0.000000,107.000000) scale(0.100000,-0.100000)"
fill="#000000" stroke="none">
<path d="M358 1036 c-133 -55 -232 -146 -293 -269 -128 -260 -16 -582 247
-712 43 -21 94 -38 115 -39 l37 -1 178 255 c98 140 176 262 174 270 -2 8 -57
92 -122 186 -65 93 -144 207 -174 252 -63 93 -70 96 -162 58z m2 -386 l0 -90
-95 0 -95 0 0 90 0 90 95 0 95 0 0 -90z m230 0 l0 -90 -90 0 -90 0 0 90 0 90
90 0 90 0 0 -90z m-230 -235 l0 -95 -95 0 -95 0 0 95 0 95 95 0 95 0 0 -95z
m230 0 l0 -95 -90 0 -90 0 0 95 0 95 90 0 90 0 0 -95z"/>
<path d="M668 1032 c9 -15 87 -129 173 -252 85 -124 158 -230 162 -236 3 -6
-75 -127 -173 -270 -99 -142 -175 -260 -170 -262 12 -4 70 14 126 39 94 42
201 144 249 239 74 146 75 342 2 485 -59 117 -180 224 -301 265 -81 28 -90 27
-68 -8z"/>
</g>
</svg>
