<svg id="svg" version="1.1" xmlns="http://www.w3.org/2000/svg" xmlns:xlink="http://www.w3.org/1999/xlink" width="400" height="406.06060606060606" viewBox="0, 0, 400,406.06060606060606"><g id="svgg"><path id="path0" d="M157.502 44.956 C 157.118 45.247,155.724 45.599,154.404 45.736 C 153.085 45.874,151.352 46.260,150.554 46.594 C 149.755 46.927,148.444 47.200,147.640 47.200 C 146.836 47.200,145.814 47.455,145.369 47.767 C 144.923 48.079,143.848 48.459,142.980 48.612 C 142.111 48.765,141.040 49.112,140.600 49.385 C 140.160 49.657,139.101 50.009,138.246 50.168 C 137.391 50.327,136.044 50.804,135.252 51.228 C 134.460 51.653,133.637 52.000,133.422 52.000 C 133.056 52.000,129.233 53.547,123.800 55.895 C 119.492 57.757,111.620 61.644,111.384 62.027 C 111.257 62.232,110.831 62.400,110.438 62.400 C 110.045 62.400,109.398 62.760,109.000 63.200 C 108.602 63.640,108.151 64.000,107.997 64.000 C 107.844 64.000,106.531 64.765,105.080 65.700 C 103.628 66.635,101.513 67.940,100.379 68.600 C 99.245 69.260,97.860 70.205,97.300 70.700 C 96.741 71.195,96.135 71.600,95.954 71.600 C 95.514 71.600,88.605 76.954,84.530 80.453 C 82.731 81.998,80.794 83.653,80.226 84.131 C 79.338 84.877,72.202 92.013,69.800 94.556 C 65.352 99.266,57.486 108.758,56.521 110.580 C 56.177 111.230,55.695 111.970,55.448 112.225 C 55.202 112.481,54.190 113.990,53.200 115.578 C 52.210 117.167,50.841 119.217,50.158 120.133 C 49.476 121.050,48.779 122.250,48.611 122.800 C 48.443 123.350,48.083 124.070,47.812 124.400 C 47.147 125.207,42.905 133.039,42.583 134.052 C 42.443 134.495,41.651 136.240,40.824 137.929 C 39.996 139.618,38.992 141.900,38.592 143.000 C 38.192 144.100,37.625 145.284,37.332 145.631 C 37.039 145.979,36.800 146.574,36.800 146.953 C 36.800 147.333,36.453 148.405,36.029 149.336 C 35.605 150.266,35.128 151.550,34.967 152.187 C 34.807 152.825,34.435 153.809,34.141 154.373 C 33.846 154.938,33.604 155.765,33.602 156.211 C 33.601 156.657,33.356 157.377,33.058 157.811 C 32.759 158.245,32.390 159.573,32.236 160.763 C 32.082 161.952,31.706 163.409,31.400 164.000 C 31.094 164.591,30.724 166.048,30.576 167.237 C 30.429 168.427,30.088 169.580,29.819 169.800 C 29.550 170.020,29.222 171.460,29.090 173.000 C 28.958 174.540,28.569 176.588,28.225 177.550 C 27.881 178.513,27.600 180.457,27.600 181.871 C 27.600 183.285,27.285 185.738,26.900 187.321 C 25.855 191.620,25.855 221.081,26.900 225.683 C 27.285 227.379,27.600 229.831,27.600 231.133 C 27.600 232.434,27.861 234.238,28.179 235.141 C 28.498 236.044,28.880 237.911,29.030 239.291 C 29.179 240.671,29.527 242.070,29.803 242.400 C 30.079 242.730,30.434 244.080,30.593 245.400 C 30.752 246.719,31.113 248.249,31.394 248.800 C 31.676 249.350,32.039 250.779,32.201 251.977 C 32.363 253.174,32.745 254.402,33.048 254.705 C 33.352 255.009,33.600 255.540,33.600 255.885 C 33.600 256.728,35.623 262.901,36.056 263.380 C 36.245 263.589,36.402 264.039,36.404 264.380 C 36.406 264.721,36.850 265.900,37.391 267.000 C 37.932 268.100,38.381 269.134,38.387 269.297 C 38.401 269.623,41.657 276.953,42.786 279.200 C 44.248 282.109,47.309 287.816,47.613 288.200 C 47.788 288.420,48.598 289.860,49.413 291.400 C 50.229 292.940,51.376 294.830,51.962 295.600 C 52.548 296.370,53.561 297.810,54.213 298.800 C 56.257 301.900,60.864 308.082,63.306 311.000 C 64.595 312.540,66.251 314.520,66.988 315.400 C 68.217 316.868,76.978 325.718,79.800 328.341 C 80.460 328.954,82.890 330.993,85.200 332.871 C 87.510 334.749,90.014 336.861,90.764 337.563 C 91.514 338.265,92.504 339.040,92.964 339.285 C 93.424 339.530,94.716 340.421,95.836 341.265 C 96.956 342.109,98.047 342.800,98.261 342.800 C 98.474 342.800,99.082 343.205,99.611 343.700 C 103.088 346.955,125.607 358.445,132.700 360.583 C 133.195 360.732,133.600 360.999,133.600 361.175 C 133.600 361.352,134.468 361.612,135.530 361.753 C 136.591 361.894,137.806 362.271,138.230 362.592 C 138.653 362.912,139.457 363.180,140.015 363.187 C 140.574 363.194,141.706 363.544,142.530 363.965 C 143.355 364.385,144.968 364.855,146.115 365.009 C 147.262 365.163,148.400 365.451,148.645 365.648 C 148.890 365.845,150.150 366.194,151.445 366.422 C 152.740 366.651,154.444 367.085,155.230 367.388 C 157.911 368.418,162.812 368.236,163.355 367.085 C 163.738 366.271,165.302 363.842,167.304 360.950 C 168.352 359.438,169.612 357.616,170.104 356.901 C 173.898 351.400,179.428 343.373,182.330 339.154 C 184.238 336.379,186.114 333.679,186.498 333.154 C 186.882 332.629,188.456 330.310,189.996 328.000 C 191.535 325.690,193.330 323.080,193.983 322.200 C 194.637 321.320,195.520 319.970,195.947 319.200 C 196.643 317.943,197.302 317.051,198.893 315.214 C 199.682 314.302,201.600 311.209,201.600 310.848 C 201.600 310.670,201.979 310.181,202.443 309.762 C 202.906 309.343,203.629 308.370,204.049 307.600 C 204.470 306.830,205.888 304.670,207.202 302.800 C 208.515 300.930,210.946 297.420,212.602 295.000 C 214.259 292.580,216.239 289.700,217.002 288.600 C 217.765 287.500,218.569 286.330,218.789 286.000 C 219.010 285.670,220.135 284.050,221.290 282.400 C 222.446 280.750,223.933 278.561,224.595 277.535 C 226.591 274.444,228.979 271.014,229.301 270.775 C 229.467 270.652,230.762 268.762,232.178 266.575 C 233.595 264.389,235.349 261.736,236.077 260.679 C 237.361 258.814,237.851 258.132,240.797 254.108 C 241.565 253.059,242.531 251.570,242.942 250.800 C 243.354 250.030,244.259 248.680,244.954 247.800 C 245.649 246.920,246.744 245.390,247.388 244.400 C 248.031 243.410,248.763 242.420,249.012 242.200 C 249.262 241.980,249.721 241.334,250.033 240.765 C 250.520 239.876,251.594 238.266,254.400 234.220 C 254.730 233.744,255.540 232.485,256.200 231.422 C 256.860 230.359,258.033 228.659,258.806 227.645 C 259.579 226.630,261.278 224.180,262.582 222.200 C 263.886 220.220,265.191 218.330,265.483 218.000 C 266.287 217.092,270.307 211.164,271.045 209.800 C 271.402 209.140,272.038 208.222,272.460 207.760 C 273.445 206.681,273.079 205.647,270.354 201.814 C 265.562 195.071,257.806 183.786,251.450 174.308 C 249.284 171.077,248.764 170.326,245.700 166.000 C 244.531 164.350,243.403 162.730,243.193 162.400 C 240.598 158.316,238.533 155.339,238.115 155.080 C 237.832 154.904,237.600 154.596,237.600 154.395 C 237.600 154.194,236.783 152.898,235.785 151.515 C 234.787 150.132,233.494 148.280,232.912 147.400 C 229.754 142.629,228.963 141.465,226.388 137.800 C 221.633 131.033,219.035 127.244,218.200 125.854 C 217.125 124.064,216.135 122.635,214.104 119.938 C 213.167 118.693,212.400 117.523,212.400 117.338 C 212.399 117.152,211.994 116.511,211.500 115.914 C 211.005 115.317,209.970 113.907,209.200 112.782 C 208.430 111.656,207.429 110.255,206.975 109.668 C 206.521 109.081,205.604 107.700,204.938 106.600 C 204.272 105.500,202.798 103.359,201.663 101.843 C 200.528 100.326,199.600 98.898,199.600 98.668 C 199.600 98.439,198.909 97.430,198.065 96.426 C 197.220 95.422,196.290 94.150,195.999 93.600 C 195.552 92.757,189.473 83.839,188.500 82.600 C 188.328 82.380,187.533 81.210,186.734 80.000 C 185.935 78.790,184.705 77.080,184.001 76.200 C 183.297 75.320,182.362 73.900,181.923 73.044 C 181.485 72.188,180.961 71.288,180.760 71.044 C 179.580 69.617,177.236 66.420,176.573 65.334 C 175.811 64.087,172.935 59.848,167.796 52.400 C 166.353 50.310,164.544 47.655,163.774 46.500 C 162.272 44.244,159.377 43.532,157.502 44.956 M218.306 45.900 C 218.688 46.725,219.211 47.580,219.468 47.800 C 220.108 48.346,222.609 51.695,223.195 52.790 C 223.457 53.280,224.555 54.892,225.636 56.373 C 226.716 57.854,227.600 59.202,227.600 59.370 C 227.600 59.537,227.915 60.086,228.300 60.591 C 228.685 61.095,229.270 61.913,229.600 62.409 C 229.930 62.905,230.605 63.807,231.100 64.413 C 231.595 65.020,232.000 65.690,232.000 65.903 C 232.000 66.116,232.560 66.990,233.245 67.845 C 233.929 68.700,235.468 70.840,236.663 72.600 C 237.859 74.360,239.729 77.060,240.819 78.600 C 241.908 80.139,242.800 81.540,242.800 81.711 C 242.800 81.883,243.475 82.907,244.300 83.986 C 245.661 85.767,248.030 89.083,250.596 92.800 C 251.128 93.570,252.062 95.010,252.673 96.000 C 253.772 97.781,258.403 104.411,259.982 106.463 C 260.432 107.048,260.800 107.714,260.800 107.943 C 260.800 108.173,261.083 108.519,261.429 108.712 C 261.776 108.906,262.271 109.434,262.529 109.886 C 264.108 112.642,265.558 114.881,267.074 116.904 C 268.023 118.172,268.800 119.449,268.800 119.742 C 268.800 120.036,269.151 120.593,269.579 120.981 C 270.007 121.369,271.531 123.422,272.965 125.543 C 274.398 127.664,277.013 131.470,278.775 134.000 C 282.106 138.783,290.155 150.555,291.200 152.173 C 291.530 152.684,292.520 154.122,293.400 155.369 C 294.280 156.615,295.360 158.229,295.800 158.955 C 296.240 159.682,297.011 160.799,297.513 161.438 C 298.015 162.077,299.320 163.950,300.413 165.600 C 301.506 167.250,302.625 168.914,302.900 169.298 C 303.175 169.682,303.808 170.582,304.307 171.298 C 304.805 172.014,305.998 173.695,306.957 175.034 C 307.916 176.373,308.930 177.903,309.209 178.434 C 309.488 178.965,310.275 180.111,310.958 180.980 C 311.641 181.850,312.380 182.872,312.600 183.253 C 312.820 183.634,314.080 185.502,315.400 187.406 C 316.720 189.309,318.157 191.436,318.594 192.131 C 319.466 193.520,324.969 201.394,326.584 203.564 C 327.856 205.273,327.932 207.470,326.771 208.947 C 326.314 209.526,324.464 212.206,322.658 214.900 C 320.852 217.595,318.571 220.880,317.587 222.200 C 315.082 225.564,311.416 230.964,310.934 232.000 C 310.780 232.330,309.924 233.590,309.031 234.800 C 307.609 236.727,306.649 238.108,303.747 242.400 C 303.083 243.382,301.036 246.437,298.656 250.000 C 297.995 250.990,296.773 252.628,295.940 253.640 C 295.107 254.652,294.240 255.912,294.013 256.440 C 293.787 256.968,292.880 258.390,291.999 259.600 C 291.118 260.810,288.679 264.320,286.578 267.400 C 284.478 270.480,281.139 275.340,279.159 278.200 C 277.178 281.060,274.210 285.380,272.563 287.800 C 270.916 290.220,268.623 293.550,267.468 295.200 C 266.313 296.850,265.015 298.757,264.584 299.438 C 263.167 301.676,260.597 305.425,258.984 307.606 C 258.113 308.784,257.040 310.327,256.600 311.035 C 254.409 314.560,247.535 324.464,245.750 326.667 C 245.008 327.584,244.400 328.463,244.400 328.620 C 244.400 328.776,243.786 329.759,243.035 330.805 C 242.284 331.850,241.396 333.221,241.061 333.852 C 240.726 334.484,239.991 335.487,239.426 336.083 C 238.862 336.678,238.400 337.261,238.400 337.379 C 238.400 337.656,231.811 347.375,230.386 349.200 C 229.785 349.970,228.777 351.430,228.146 352.444 C 226.993 354.299,224.056 358.650,220.513 363.755 C 217.241 368.469,216.394 370.298,218.166 368.828 C 218.488 368.561,220.158 368.244,221.876 368.125 C 223.594 368.005,225.421 367.643,225.936 367.321 C 226.450 366.999,227.890 366.635,229.136 366.512 C 230.381 366.390,231.852 366.062,232.405 365.783 C 232.958 365.505,234.308 365.144,235.405 364.980 C 236.502 364.816,237.760 364.453,238.200 364.172 C 238.640 363.892,239.855 363.538,240.900 363.386 C 241.945 363.234,242.800 362.978,242.800 362.819 C 242.800 362.435,244.657 361.600,245.511 361.600 C 246.095 361.600,247.002 361.290,251.400 359.583 C 251.840 359.412,253.010 358.916,254.000 358.481 C 258.995 356.285,260.736 355.483,262.200 354.707 C 263.080 354.240,264.070 353.715,264.400 353.539 C 264.730 353.364,265.630 352.939,266.400 352.594 C 271.358 350.378,286.915 340.435,291.085 336.817 C 291.352 336.585,292.166 335.992,292.892 335.498 C 293.619 335.004,294.841 334.028,295.607 333.330 C 296.373 332.631,299.250 330.022,302.000 327.532 C 304.750 325.042,308.452 321.384,310.228 319.403 C 312.003 317.421,314.303 314.900,315.338 313.800 C 316.374 312.700,317.801 311.023,318.511 310.072 C 319.220 309.122,321.015 306.828,322.500 304.973 C 323.985 303.119,325.200 301.444,325.200 301.250 C 325.200 301.056,325.498 300.651,325.861 300.349 C 326.225 300.047,326.720 299.350,326.961 298.800 C 327.381 297.843,331.911 290.815,332.376 290.400 C 332.499 290.290,333.039 289.300,333.575 288.200 C 334.112 287.100,335.237 284.999,336.075 283.530 C 336.914 282.062,337.600 280.605,337.600 280.292 C 337.600 279.980,337.960 279.398,338.400 279.000 C 338.840 278.602,339.200 277.882,339.200 277.400 C 339.200 276.918,339.560 276.198,340.000 275.800 C 340.440 275.402,340.800 274.727,340.800 274.300 C 340.800 273.873,341.041 273.046,341.335 272.462 C 342.936 269.286,343.777 267.219,345.798 261.500 C 347.023 258.034,348.175 254.391,348.360 253.404 C 348.544 252.416,348.887 251.377,349.122 251.094 C 349.357 250.811,349.671 249.595,349.820 248.390 C 349.970 247.186,350.330 245.819,350.620 245.354 C 350.910 244.888,351.274 243.358,351.427 241.954 C 351.581 240.549,351.930 238.950,352.203 238.400 C 352.476 237.850,352.782 235.925,352.882 234.122 C 352.987 232.250,353.292 230.571,353.595 230.206 C 353.958 229.769,354.225 227.401,354.442 222.684 C 354.617 218.898,354.948 214.720,355.178 213.400 C 355.703 210.383,355.709 203.021,355.189 199.600 C 354.972 198.170,354.628 193.808,354.425 189.908 C 354.148 184.572,353.901 182.593,353.428 181.919 C 353.014 181.327,352.799 180.133,352.798 178.411 C 352.796 176.975,352.550 175.330,352.250 174.756 C 351.950 174.181,351.573 172.471,351.410 170.956 C 351.248 169.440,350.888 167.750,350.610 167.200 C 350.332 166.650,349.973 165.302,349.813 164.205 C 349.653 163.108,349.270 161.722,348.961 161.125 C 348.653 160.528,348.400 159.743,348.400 159.380 C 348.400 159.018,348.146 158.154,347.834 157.460 C 347.523 156.767,347.057 155.480,346.799 154.600 C 345.849 151.370,342.684 143.029,341.954 141.832 C 341.541 141.154,341.202 140.312,341.201 139.960 C 341.201 139.607,340.750 138.473,340.200 137.438 C 339.650 136.404,339.200 135.295,339.200 134.975 C 339.200 134.654,338.840 134.084,338.400 133.707 C 337.960 133.330,337.600 132.763,337.600 132.446 C 337.600 132.129,337.105 131.045,336.500 130.037 C 335.313 128.059,334.617 126.800,332.310 122.462 C 331.490 120.921,330.633 119.544,330.404 119.403 C 330.176 119.261,329.608 118.393,329.142 117.473 C 328.677 116.553,328.049 115.656,327.748 115.480 C 327.447 115.304,327.200 114.977,327.200 114.753 C 327.200 113.716,316.346 99.534,313.163 96.410 C 312.372 95.635,309.672 92.840,307.163 90.200 C 304.653 87.560,302.150 85.101,301.600 84.735 C 301.050 84.370,299.610 83.133,298.400 81.986 C 297.190 80.840,294.895 78.912,293.300 77.702 C 291.705 76.493,290.400 75.345,290.400 75.152 C 290.400 74.958,290.203 74.800,289.963 74.800 C 289.723 74.800,289.048 74.428,288.463 73.973 C 284.838 71.152,282.653 69.600,282.307 69.600 C 282.088 69.600,281.345 69.134,280.655 68.565 C 279.965 67.996,277.690 66.534,275.600 65.316 C 273.510 64.099,271.260 62.763,270.600 62.349 C 269.940 61.935,268.770 61.307,268.000 60.953 C 267.230 60.599,266.510 60.176,266.400 60.013 C 266.290 59.850,265.480 59.482,264.600 59.197 C 263.720 58.911,262.370 58.282,261.600 57.800 C 260.830 57.318,259.528 56.702,258.706 56.432 C 257.884 56.162,257.108 55.775,256.982 55.571 C 256.856 55.367,256.403 55.200,255.976 55.200 C 255.549 55.200,254.840 54.840,254.400 54.400 C 253.960 53.960,253.207 53.600,252.726 53.600 C 252.246 53.600,251.121 53.250,250.226 52.823 C 248.012 51.765,245.360 50.823,243.200 50.325 C 242.210 50.097,241.116 49.661,240.769 49.355 C 240.421 49.050,239.566 48.800,238.867 48.800 C 238.169 48.800,236.925 48.440,236.104 48.000 C 235.284 47.560,233.857 47.200,232.934 47.200 C 232.011 47.200,230.999 46.942,230.683 46.626 C 230.368 46.310,228.960 45.926,227.555 45.773 C 226.150 45.619,224.514 45.247,223.920 44.947 C 223.326 44.646,221.664 44.400,220.226 44.400 L 217.613 44.400 218.306 45.900 M131.436 144.030 C 132.096 144.578,132.126 198.808,131.467 199.467 C 130.734 200.200,76.649 200.054,76.100 199.318 C 75.158 198.055,75.396 144.588,76.346 143.923 C 77.394 143.189,130.548 143.293,131.436 144.030 M202.286 144.114 C 203.155 144.983,203.654 194.829,202.824 197.910 L 202.391 199.517 196.496 199.813 C 184.299 200.426,147.942 199.809,147.335 198.979 C 146.615 197.994,146.539 146.210,147.256 144.637 C 147.855 143.321,147.052 143.355,176.886 143.380 C 200.032 143.399,201.616 143.445,202.286 144.114 M131.441 214.869 C 132.002 215.431,132.345 270.319,131.792 271.212 C 131.413 271.827,76.712 271.720,75.892 271.103 C 75.279 270.642,75.217 268.291,75.161 243.000 L 75.099 215.400 76.250 214.800 C 77.896 213.942,130.579 214.008,131.441 214.869 M202.720 214.880 C 203.327 215.487,203.423 270.615,202.818 270.989 C 202.280 271.321,147.953 271.320,147.100 270.987 C 146.049 270.578,146.012 216.291,147.062 215.131 C 147.894 214.212,201.809 213.969,202.720 214.880 " stroke="none" fill="#072446" fill-rule="evenodd"></path><path id="path1" d="M219.105 44.283 C 219.602 44.379,220.322 44.375,220.705 44.275 C 221.087 44.175,220.680 44.096,219.800 44.101 C 218.920 44.105,218.607 44.187,219.105 44.283 M182.643 74.327 C 183.059 75.057,183.748 75.957,184.174 76.327 C 184.624 76.718,184.466 76.331,183.796 75.400 C 182.193 73.174,181.750 72.761,182.643 74.327 M84.378 80.300 L 83.000 81.800 84.500 80.422 C 85.896 79.138,86.184 78.800,85.878 78.800 C 85.812 78.800,85.137 79.475,84.378 80.300 M76.575 87.300 L 75.400 88.600 76.700 87.425 C 77.912 86.330,78.184 86.000,77.875 86.000 C 77.806 86.000,77.221 86.585,76.575 87.300 M72.786 91.100 L 70.600 93.400 72.900 91.214 C 75.037 89.182,75.383 88.800,75.086 88.800 C 75.024 88.800,73.989 89.835,72.786 91.100 M66.723 97.500 C 66.018 98.321,65.490 99.200,65.701 99.200 C 65.783 99.200,66.249 98.660,66.737 98.000 C 67.701 96.696,67.692 96.372,66.723 97.500 M267.648 118.200 C 268.004 118.640,268.395 119.270,268.516 119.600 C 268.703 120.109,268.742 120.104,268.768 119.562 C 268.786 119.211,268.395 118.581,267.900 118.162 C 267.008 117.406,267.006 117.407,267.648 118.200 M223.599 133.900 C 224.122 134.615,224.613 135.200,224.689 135.200 C 224.993 135.200,224.001 133.700,223.345 133.167 C 222.913 132.816,223.010 133.096,223.599 133.900 M76.346 143.923 C 75.396 144.588,75.158 198.055,76.100 199.318 C 76.649 200.054,130.734 200.200,131.467 199.467 C 132.126 198.808,132.096 144.578,131.436 144.030 C 130.548 143.293,77.394 143.189,76.346 143.923 M352.914 179.400 C 352.917 180.500,352.995 180.903,353.087 180.295 C 353.179 179.686,353.177 178.786,353.082 178.295 C 352.987 177.803,352.911 178.300,352.914 179.400 M26.101 192.600 C 26.105 193.480,26.187 193.793,26.283 193.295 C 26.379 192.798,26.375 192.078,26.275 191.695 C 26.175 191.313,26.096 191.720,26.101 192.600 M354.893 196.800 C 354.893 197.570,354.975 197.885,355.076 197.500 C 355.176 197.115,355.176 196.485,355.076 196.100 C 354.975 195.715,354.893 196.030,354.893 196.800 M25.709 204.800 C 25.709 205.790,25.787 206.195,25.882 205.700 C 25.978 205.205,25.978 204.395,25.882 203.900 C 25.787 203.405,25.709 203.810,25.709 204.800 M25.709 208.400 C 25.709 209.390,25.787 209.795,25.882 209.300 C 25.978 208.805,25.978 207.995,25.882 207.500 C 25.787 207.005,25.709 207.410,25.709 208.400 M124.900 214.276 C 125.285 214.376,125.915 214.376,126.300 214.276 C 126.685 214.175,126.370 214.093,125.600 214.093 C 124.830 214.093,124.515 214.175,124.900 214.276 M147.059 215.135 C 146.451 215.807,146.403 218.208,146.500 243.435 L 146.606 271.000 146.703 243.349 C 146.782 220.782,146.899 215.616,147.337 215.252 C 147.717 214.937,155.213 214.775,172.837 214.700 L 197.800 214.594 172.762 214.497 C 148.907 214.405,147.693 214.435,147.059 215.135 M200.000 214.690 C 201.446 214.784,202.371 215.059,202.700 215.493 C 202.975 215.856,203.200 215.975,203.200 215.756 C 203.200 214.834,202.133 214.404,200.020 214.474 L 197.800 214.548 200.000 214.690 M75.280 215.280 C 75.016 215.544,74.827 216.309,74.860 216.980 L 74.920 218.200 75.095 217.000 C 75.192 216.340,75.457 215.575,75.684 215.300 C 76.212 214.662,75.913 214.647,75.280 215.280 M354.893 216.000 C 354.893 216.770,354.975 217.085,355.076 216.700 C 355.176 216.315,355.176 215.685,355.076 215.300 C 354.975 214.915,354.893 215.230,354.893 216.000 M318.535 220.500 C 317.530 221.625,315.888 224.000,316.115 224.000 C 316.208 224.000,317.025 223.010,317.930 221.800 C 319.655 219.494,319.894 218.979,318.535 220.500 M28.870 240.137 C 28.824 241.151,29.072 242.020,29.600 242.691 C 30.040 243.250,30.400 243.526,30.400 243.303 C 30.400 243.080,30.140 242.682,29.821 242.418 C 29.503 242.154,29.175 241.187,29.091 240.269 L 28.940 238.600 28.870 240.137 M127.600 271.200 L 123.400 271.443 127.476 271.522 C 129.851 271.567,131.656 271.433,131.800 271.200 C 131.936 270.980,131.992 270.835,131.924 270.878 C 131.856 270.921,129.910 271.066,127.600 271.200 M88.129 271.500 C 94.689 271.562,105.309 271.561,111.729 271.500 C 118.148 271.438,112.780 271.387,99.800 271.388 C 86.820 271.388,81.568 271.438,88.129 271.500 M50.012 293.078 C 50.005 293.340,50.405 293.979,50.900 294.497 C 51.395 295.015,51.600 295.160,51.356 294.820 C 51.112 294.479,50.712 293.840,50.468 293.400 C 50.224 292.960,50.019 292.815,50.012 293.078 M311.578 317.900 L 310.200 319.400 311.700 318.022 C 313.096 316.738,313.384 316.400,313.078 316.400 C 313.012 316.400,312.337 317.075,311.578 317.900 M70.400 319.325 C 70.400 319.394,70.985 319.979,71.700 320.625 L 73.000 321.800 71.825 320.500 C 70.730 319.288,70.400 319.016,70.400 319.325 M192.723 323.900 C 192.018 324.721,191.490 325.600,191.701 325.600 C 191.783 325.600,192.249 325.060,192.737 324.400 C 193.701 323.096,193.692 322.772,192.723 323.900 M75.200 324.125 C 75.200 324.194,75.785 324.779,76.500 325.425 L 77.800 326.600 76.625 325.300 C 75.530 324.088,75.200 323.816,75.200 324.125 M300.778 328.700 L 299.400 330.200 300.900 328.822 C 301.725 328.063,302.400 327.388,302.400 327.322 C 302.400 327.016,302.062 327.304,300.778 328.700 " stroke="none" fill="#50c5b4" fill-rule="evenodd"></path><path id="path2" d="M0.000 203.000 L 0.000 406.000 200.000 406.000 L 400.000 406.000 400.000 203.000 L 400.000 0.000 200.000 0.000 L 0.000 0.000 0.000 203.000 M218.400 43.000 C 218.747 43.418,219.668 43.600,221.441 43.600 C 222.839 43.600,224.662 43.855,225.492 44.167 C 226.321 44.479,227.989 44.851,229.198 44.994 C 230.407 45.137,231.667 45.489,231.998 45.778 C 232.329 46.066,233.547 46.388,234.704 46.493 C 235.861 46.598,237.135 46.980,237.536 47.342 C 237.966 47.731,238.944 48.000,239.931 48.000 C 241.067 48.000,241.856 48.256,242.400 48.800 C 242.873 49.273,243.733 49.600,244.506 49.600 C 245.224 49.600,246.439 49.934,247.206 50.341 C 247.973 50.749,249.275 51.207,250.100 51.360 C 250.925 51.512,251.600 51.792,251.600 51.983 C 251.600 52.174,252.333 52.453,253.228 52.605 C 254.123 52.756,254.944 53.111,255.053 53.393 C 255.161 53.675,255.935 54.015,256.773 54.149 C 257.611 54.283,258.504 54.643,258.757 54.948 C 259.011 55.254,259.729 55.606,260.354 55.731 C 260.979 55.856,262.550 56.597,263.845 57.378 C 265.140 58.159,266.425 58.798,266.700 58.799 C 266.975 58.800,267.200 59.050,267.200 59.355 C 267.200 59.671,267.789 60.021,268.560 60.166 C 269.308 60.306,270.130 60.675,270.387 60.985 C 270.645 61.295,271.381 61.664,272.023 61.805 C 272.665 61.946,273.291 62.223,273.413 62.421 C 273.535 62.619,274.752 63.422,276.118 64.206 C 279.787 66.314,280.024 66.467,282.151 68.100 C 283.225 68.925,284.311 69.600,284.563 69.600 C 284.816 69.600,285.304 69.915,285.649 70.300 C 285.993 70.685,286.689 71.270,287.193 71.600 C 287.698 71.930,288.607 72.605,289.213 73.100 C 289.820 73.595,290.520 74.000,290.770 74.000 C 291.020 74.000,291.329 74.270,291.455 74.600 C 291.582 74.930,291.860 75.200,292.074 75.200 C 292.613 75.200,298.156 79.758,300.709 82.300 C 301.868 83.455,302.993 84.400,303.209 84.400 C 303.424 84.400,303.600 84.670,303.600 85.000 C 303.600 85.330,303.822 85.600,304.093 85.600 C 304.737 85.600,314.000 95.171,314.000 95.836 C 314.000 96.117,314.360 96.460,314.800 96.600 C 315.240 96.740,315.600 97.093,315.600 97.384 C 315.600 97.676,315.862 98.015,316.182 98.138 C 316.981 98.445,324.800 108.297,324.800 108.997 C 324.800 109.307,325.028 109.704,325.307 109.880 C 325.756 110.164,329.146 114.907,330.200 116.726 C 330.420 117.106,331.005 117.981,331.500 118.670 C 331.995 119.359,332.400 120.101,332.400 120.319 C 332.400 120.536,332.653 120.812,332.962 120.930 C 333.272 121.049,333.646 121.698,333.794 122.373 C 333.942 123.048,334.192 123.600,334.350 123.600 C 334.507 123.600,335.239 124.775,335.976 126.212 C 336.713 127.649,337.470 128.920,337.658 129.036 C 337.846 129.152,338.202 130.047,338.448 131.024 C 338.694 132.001,339.039 132.800,339.216 132.800 C 339.392 132.800,339.652 133.328,339.794 133.972 C 339.936 134.617,340.276 135.331,340.551 135.560 C 340.826 135.788,341.466 136.925,341.974 138.087 C 342.481 139.249,343.234 140.940,343.648 141.844 C 344.062 142.748,344.400 143.747,344.400 144.064 C 344.400 144.381,344.603 144.843,344.852 145.092 C 345.333 145.573,346.555 148.750,347.280 151.400 C 347.520 152.280,347.867 153.194,348.050 153.431 C 348.233 153.668,348.648 155.018,348.971 156.431 C 349.947 160.702,350.417 162.487,351.227 165.000 C 351.652 166.320,352.000 168.055,352.000 168.856 C 352.000 169.657,352.356 171.097,352.791 172.056 C 353.383 173.361,353.585 174.682,353.591 177.300 C 353.599 180.259,353.724 180.924,354.400 181.600 C 355.122 182.322,355.200 182.933,355.200 187.869 C 355.200 192.283,355.321 193.471,355.830 194.033 C 356.811 195.118,356.849 216.656,355.871 218.147 C 355.325 218.982,355.200 220.198,355.200 224.701 C 355.200 229.441,355.086 230.455,354.400 231.800 C 353.851 232.876,353.600 234.159,353.600 235.883 C 353.600 237.284,353.263 239.415,352.837 240.698 C 352.418 241.964,351.968 243.882,351.837 244.960 C 351.706 246.037,351.419 247.136,351.200 247.400 C 350.981 247.664,350.688 248.763,350.551 249.840 C 350.283 251.933,348.650 258.073,348.009 259.400 C 347.469 260.516,346.410 263.546,346.012 265.111 C 345.829 265.833,345.503 266.643,345.289 266.911 C 345.074 267.180,344.761 267.850,344.594 268.400 C 344.427 268.950,343.955 269.829,343.545 270.354 C 343.135 270.879,342.800 271.712,342.800 272.205 C 342.800 272.698,342.552 273.308,342.248 273.560 C 341.945 273.812,341.594 274.532,341.468 275.161 C 341.342 275.789,340.960 276.582,340.620 276.923 C 340.279 277.264,340.000 277.730,340.000 277.960 C 340.000 278.411,338.258 282.499,337.511 283.800 C 337.258 284.240,336.260 286.040,335.292 287.800 C 334.324 289.560,333.278 291.200,332.966 291.444 C 332.655 291.688,332.400 292.115,332.400 292.392 C 332.400 293.029,330.598 295.946,328.900 298.059 C 328.185 298.948,327.600 299.831,327.600 300.020 C 327.600 300.390,325.738 303.245,325.270 303.591 C 324.773 303.960,321.814 307.743,320.588 309.577 C 319.934 310.554,318.178 312.714,316.684 314.377 C 311.806 319.808,308.222 323.659,307.040 324.740 C 306.402 325.323,305.592 326.090,305.240 326.443 C 304.888 326.797,303.692 327.877,302.583 328.843 C 301.474 329.810,299.404 331.620,297.983 332.867 C 296.562 334.114,294.950 335.505,294.400 335.960 C 293.850 336.414,293.182 336.969,292.915 337.194 C 292.648 337.419,291.956 337.820,291.376 338.084 C 290.796 338.348,289.664 339.175,288.861 339.921 C 287.277 341.392,282.948 344.400,282.415 344.400 C 282.234 344.400,281.991 344.647,281.875 344.949 C 281.759 345.250,281.195 345.615,280.622 345.759 C 280.049 345.903,279.269 346.292,278.890 346.625 C 276.909 348.361,275.343 349.363,271.367 351.441 C 265.061 354.736,264.416 355.088,263.879 355.534 C 263.613 355.755,262.857 356.068,262.198 356.229 C 261.539 356.390,260.571 356.855,260.046 357.261 C 259.521 357.667,258.903 358.000,258.672 358.000 C 258.441 358.000,257.476 358.360,256.526 358.800 C 255.577 359.240,254.023 359.960,253.074 360.400 C 252.124 360.840,250.999 361.206,250.574 361.213 C 250.148 361.220,249.468 361.477,249.063 361.784 C 248.658 362.091,247.578 362.468,246.663 362.621 C 245.748 362.775,244.645 363.148,244.211 363.450 C 243.777 363.753,243.032 364.000,242.555 364.000 C 242.078 364.000,240.903 364.356,239.944 364.791 C 238.985 365.226,237.699 365.586,237.086 365.591 C 236.473 365.596,235.551 365.876,235.037 366.213 C 234.522 366.550,233.133 366.925,231.951 367.046 C 230.768 367.168,228.957 367.612,227.926 368.034 C 226.824 368.484,225.093 368.801,223.726 368.803 C 222.078 368.805,221.050 369.037,220.200 369.600 C 218.707 370.589,217.125 370.622,216.276 369.684 C 215.579 368.914,215.524 369.051,218.088 365.226 C 218.466 364.662,219.071 363.660,219.431 363.000 C 219.792 362.340,220.843 360.810,221.767 359.600 C 222.691 358.390,223.936 356.590,224.533 355.600 C 225.130 354.610,226.281 352.900,227.091 351.800 C 227.900 350.700,229.333 348.630,230.276 347.200 C 231.219 345.770,232.131 344.420,232.302 344.200 C 232.666 343.732,235.616 339.398,236.200 338.473 C 237.685 336.121,242.000 329.920,242.792 329.000 C 243.171 328.560,243.592 327.885,243.728 327.500 C 243.864 327.115,244.161 326.800,244.387 326.800 C 244.614 326.800,244.800 326.544,244.800 326.231 C 244.800 325.918,245.250 325.127,245.800 324.473 C 246.350 323.819,246.800 323.108,246.800 322.891 C 246.800 322.675,247.066 322.278,247.390 322.008 C 247.715 321.739,249.001 319.962,250.249 318.059 C 252.248 315.013,253.279 313.579,254.830 311.691 C 255.060 311.411,255.496 310.601,255.798 309.891 C 256.100 309.181,256.886 308.018,257.545 307.307 C 258.203 306.596,258.857 305.651,258.998 305.207 C 259.139 304.763,259.426 304.400,259.637 304.400 C 259.847 304.400,260.191 303.950,260.400 303.400 C 260.609 302.850,260.965 302.400,261.190 302.400 C 261.416 302.400,261.600 302.194,261.600 301.941 C 261.600 301.466,263.847 297.898,265.466 295.800 C 267.742 292.853,269.600 290.122,269.600 289.723 C 269.600 289.591,270.193 288.744,270.918 287.841 C 271.643 286.939,273.380 284.445,274.778 282.300 C 276.176 280.155,277.563 278.400,277.860 278.400 C 278.157 278.400,278.400 278.021,278.400 277.558 C 278.400 277.095,278.805 276.201,279.300 275.572 C 279.795 274.944,280.830 273.512,281.600 272.391 C 282.370 271.269,283.760 269.328,284.689 268.076 C 285.618 266.824,286.383 265.663,286.389 265.496 C 286.403 265.106,289.110 261.203,289.956 260.353 C 290.516 259.791,291.922 257.675,293.464 255.074 C 293.719 254.644,294.089 254.181,294.287 254.046 C 294.484 253.911,294.882 253.215,295.171 252.500 C 295.460 251.785,295.861 251.200,296.061 251.200 C 296.261 251.200,296.543 250.885,296.688 250.500 C 296.960 249.774,298.626 247.307,301.267 243.717 C 302.110 242.571,302.800 241.517,302.800 241.375 C 302.800 241.232,303.343 240.430,304.007 239.592 C 305.946 237.143,307.871 234.357,309.194 232.082 C 309.872 230.918,310.691 229.863,311.013 229.740 C 311.336 229.616,311.600 229.290,311.600 229.015 C 311.600 228.740,312.203 227.724,312.940 226.758 C 313.677 225.791,314.622 224.391,315.040 223.648 C 316.436 221.164,316.627 220.888,318.117 219.187 C 318.933 218.257,319.600 217.289,319.600 217.037 C 319.600 216.661,321.677 213.582,323.159 211.762 C 323.355 211.522,323.787 210.802,324.119 210.162 C 324.452 209.523,325.191 208.564,325.762 208.030 C 326.983 206.890,327.103 205.519,326.050 204.749 C 325.202 204.128,319.200 195.409,319.200 194.798 C 319.200 194.579,319.016 194.400,318.790 194.400 C 318.565 194.400,318.201 193.995,317.982 193.500 C 317.762 193.005,317.050 191.880,316.398 191.000 C 315.746 190.120,313.921 187.465,312.342 185.100 C 310.762 182.735,309.319 180.800,309.135 180.800 C 308.951 180.800,308.800 180.628,308.800 180.418 C 308.800 180.007,307.634 178.210,305.763 175.738 C 304.579 174.172,303.875 173.034,302.917 171.139 C 302.622 170.555,302.129 169.982,301.821 169.864 C 301.514 169.746,300.762 168.783,300.150 167.725 C 299.539 166.666,298.940 165.710,298.819 165.600 C 298.699 165.490,298.420 165.103,298.200 164.740 C 297.980 164.378,296.495 162.142,294.900 159.773 C 293.305 157.403,292.000 155.315,292.000 155.132 C 292.000 154.950,291.832 154.800,291.626 154.800 C 291.420 154.800,291.024 154.170,290.746 153.400 C 290.467 152.630,290.048 152.000,289.813 152.000 C 289.456 152.000,288.123 150.258,286.200 147.278 C 283.832 143.609,280.050 138.087,279.160 137.000 C 278.800 136.560,278.388 135.705,278.245 135.100 C 278.102 134.495,277.763 133.999,277.492 133.997 C 277.222 133.996,276.703 133.501,276.339 132.897 C 275.976 132.294,274.941 130.763,274.039 129.496 C 273.138 128.228,272.400 127.077,272.400 126.937 C 272.400 126.797,271.796 125.944,271.057 125.041 C 270.319 124.139,269.587 122.995,269.430 122.500 C 269.274 122.005,269.009 121.600,268.840 121.600 C 268.672 121.600,267.937 120.655,267.207 119.500 C 266.477 118.345,265.667 117.220,265.406 117.000 C 264.857 116.536,261.600 111.443,261.600 111.048 C 261.600 110.902,260.736 109.662,259.679 108.291 C 257.861 105.934,256.705 104.311,255.800 102.847 C 255.176 101.837,252.249 97.446,251.903 97.000 C 251.732 96.780,250.874 95.674,249.996 94.543 C 249.118 93.411,248.400 92.313,248.400 92.101 C 248.400 91.890,247.995 91.258,247.500 90.697 C 245.800 88.770,245.144 87.796,244.162 85.739 C 243.621 84.605,242.913 83.576,242.589 83.451 C 242.265 83.327,242.000 82.949,242.000 82.613 C 242.000 82.276,241.849 82.000,241.664 82.000 C 241.480 82.000,241.120 81.543,240.866 80.985 C 240.612 80.427,240.225 79.752,240.008 79.485 C 238.302 77.394,237.435 76.213,235.828 73.785 C 233.392 70.107,233.090 69.660,232.500 68.870 C 231.387 67.378,230.000 65.145,230.000 64.844 C 230.000 64.668,229.640 64.198,229.200 63.800 C 228.760 63.402,228.400 62.904,228.400 62.694 C 228.400 62.483,227.719 61.476,226.888 60.456 C 225.164 58.340,223.340 55.746,222.263 53.878 C 221.858 53.175,221.093 52.140,220.563 51.578 C 220.033 51.016,219.600 50.348,219.600 50.094 C 219.600 49.839,219.262 49.309,218.850 48.916 C 218.437 48.522,217.961 47.750,217.792 47.200 C 217.623 46.650,217.151 45.965,216.743 45.677 C 215.901 45.085,215.762 43.598,216.480 42.880 C 217.126 42.234,217.799 42.276,218.400 43.000 M163.624 43.815 C 163.789 43.917,164.421 44.855,165.027 45.900 C 165.634 46.945,166.237 47.890,166.366 48.000 C 166.801 48.369,168.800 51.439,168.800 51.738 C 168.800 51.901,168.979 52.251,169.197 52.517 C 171.638 55.489,173.200 57.628,173.200 58.000 C 173.200 58.375,174.870 60.882,175.598 61.600 C 175.710 61.710,176.532 62.880,177.425 64.200 C 178.319 65.520,179.713 67.543,180.525 68.696 C 181.336 69.849,182.000 70.982,182.000 71.215 C 182.000 71.448,182.412 72.035,182.915 72.519 C 183.869 73.437,186.800 77.438,186.800 77.822 C 186.800 77.943,187.748 79.338,188.907 80.921 C 190.066 82.505,191.235 84.250,191.505 84.800 C 192.129 86.074,194.496 89.429,195.910 91.046 C 196.510 91.731,197.450 93.061,198.000 94.003 C 198.550 94.944,199.184 95.913,199.409 96.157 C 199.762 96.539,202.188 100.038,203.400 101.911 C 203.620 102.252,204.115 102.861,204.500 103.265 C 204.885 103.669,205.200 104.197,205.200 104.437 C 205.200 104.677,205.560 105.331,206.000 105.891 C 206.440 106.450,206.800 107.166,206.800 107.481 C 206.800 107.796,207.385 108.647,208.100 109.371 C 209.745 111.038,210.424 111.885,211.189 113.229 C 211.525 113.818,212.520 115.337,213.400 116.604 C 214.280 117.871,215.180 119.190,215.400 119.535 C 215.620 119.880,216.475 121.041,217.300 122.117 C 218.125 123.192,218.800 124.326,218.800 124.636 C 218.800 124.946,218.962 125.200,219.161 125.200 C 219.461 125.200,221.166 127.471,223.000 130.313 C 223.220 130.654,224.705 132.894,226.300 135.291 C 227.895 137.688,229.200 139.824,229.200 140.037 C 229.200 140.251,229.454 140.522,229.763 140.641 C 230.073 140.760,230.545 141.385,230.812 142.029 C 231.079 142.673,231.455 143.200,231.649 143.200 C 231.842 143.200,232.000 143.444,232.000 143.742 C 232.000 144.039,232.455 144.804,233.011 145.442 C 234.440 147.078,234.528 147.195,236.558 150.160 C 237.562 151.626,239.017 153.656,239.791 154.670 C 240.566 155.685,241.200 156.821,241.200 157.196 C 241.200 157.570,241.560 158.202,242.000 158.600 C 242.440 158.998,242.800 159.538,242.800 159.800 C 242.800 160.062,243.186 160.619,243.658 161.038 C 244.131 161.457,245.149 162.790,245.922 164.000 C 246.695 165.210,247.704 166.670,248.164 167.244 C 248.624 167.819,249.270 168.699,249.600 169.200 C 249.930 169.701,250.875 170.981,251.700 172.044 C 252.525 173.107,253.200 174.125,253.200 174.307 C 253.200 174.489,253.471 174.989,253.802 175.419 C 255.097 177.101,256.786 179.822,256.793 180.238 C 256.797 180.479,257.180 181.019,257.644 181.438 C 258.108 181.857,259.136 183.190,259.929 184.400 C 260.722 185.610,261.603 186.744,261.886 186.920 C 262.169 187.096,262.400 187.409,262.400 187.616 C 262.400 187.824,263.030 188.818,263.800 189.827 C 264.570 190.836,265.310 192.098,265.443 192.631 C 265.577 193.164,265.829 193.600,266.004 193.600 C 266.178 193.600,266.695 194.185,267.151 194.900 C 268.997 197.789,269.262 198.177,270.511 199.800 C 271.734 201.390,272.777 203.023,273.920 205.136 L 274.858 206.873 273.781 208.427 C 273.188 209.282,272.455 210.188,272.152 210.440 C 271.848 210.692,271.600 211.055,271.600 211.248 C 271.600 211.648,269.290 214.982,267.262 217.507 C 266.508 218.446,265.601 219.750,265.246 220.405 C 264.891 221.060,262.992 223.982,261.026 226.898 C 259.061 229.814,257.081 232.784,256.626 233.497 C 256.172 234.211,255.665 234.796,255.500 234.797 C 255.335 234.799,255.200 235.072,255.200 235.404 C 255.200 235.736,254.840 236.316,254.400 236.693 C 253.960 237.070,253.600 237.584,253.600 237.837 C 253.600 238.284,250.898 241.879,249.500 243.293 C 249.115 243.682,248.800 244.261,248.800 244.580 C 248.800 244.899,248.557 245.304,248.260 245.480 C 247.964 245.656,247.469 246.267,247.160 246.838 C 246.538 247.990,244.970 250.230,242.700 253.208 C 241.875 254.291,241.200 255.393,241.200 255.657 C 241.200 255.921,240.952 256.421,240.649 256.769 C 239.849 257.687,236.971 261.812,235.116 264.700 C 234.233 266.075,233.300 267.200,233.043 267.200 C 232.786 267.200,232.356 267.695,232.087 268.300 C 231.589 269.422,230.453 271.424,229.885 272.181 C 229.712 272.411,229.082 273.344,228.485 274.253 C 225.389 278.969,222.715 282.772,222.190 283.208 C 221.866 283.478,221.600 283.882,221.600 284.108 C 221.600 284.333,221.007 285.256,220.282 286.159 C 218.895 287.886,216.467 291.527,215.603 293.175 C 215.322 293.711,214.939 294.341,214.752 294.575 C 213.262 296.438,212.414 297.621,211.589 298.985 C 211.061 299.857,210.383 300.847,210.082 301.185 C 209.137 302.248,206.400 306.132,206.400 306.411 C 206.400 306.558,206.040 307.093,205.600 307.600 C 205.160 308.107,204.800 308.756,204.800 309.041 C 204.800 309.327,204.569 309.704,204.286 309.880 C 204.003 310.056,203.078 311.258,202.230 312.551 C 201.382 313.845,200.354 315.190,199.944 315.540 C 199.535 315.891,199.200 316.344,199.200 316.547 C 199.200 317.114,196.461 321.156,194.527 323.443 C 193.577 324.567,192.800 325.723,192.800 326.012 C 192.800 326.301,192.501 326.867,192.136 327.271 C 191.770 327.675,191.275 328.345,191.036 328.760 C 190.653 329.423,187.931 333.431,185.438 337.000 C 184.977 337.660,184.465 338.260,184.300 338.333 C 184.135 338.407,184.000 338.710,184.000 339.006 C 184.000 339.303,183.640 339.660,183.200 339.800 C 182.760 339.940,182.400 340.402,182.400 340.827 C 182.400 341.252,182.058 341.942,181.639 342.361 C 181.221 342.779,180.767 343.475,180.629 343.908 C 180.492 344.340,180.024 345.016,179.590 345.409 C 179.155 345.802,178.800 346.284,178.800 346.479 C 178.800 346.837,178.379 347.420,177.100 348.829 C 176.715 349.253,176.399 349.735,176.398 349.900 C 176.396 350.065,175.575 351.370,174.572 352.800 C 173.569 354.230,172.448 355.850,172.081 356.400 C 171.714 356.950,171.096 357.635,170.707 357.923 C 170.318 358.210,170.000 358.679,170.000 358.965 C 170.000 359.251,169.398 360.276,168.663 361.242 C 167.928 362.209,166.639 364.199,165.798 365.665 C 164.278 368.315,161.854 370.051,160.683 369.328 C 160.460 369.190,158.765 368.939,156.918 368.771 C 155.070 368.602,153.162 368.208,152.679 367.895 C 152.196 367.582,150.865 367.217,149.722 367.084 C 148.578 366.951,147.102 366.563,146.441 366.221 C 145.780 365.880,144.646 365.599,143.920 365.597 C 143.194 365.596,142.060 365.237,141.400 364.800 C 140.740 364.363,139.777 364.004,139.260 364.003 C 138.744 364.001,137.754 363.748,137.060 363.440 C 136.367 363.132,134.039 362.320,131.887 361.635 C 129.735 360.951,127.665 360.241,127.287 360.058 C 126.909 359.876,125.790 359.360,124.800 358.913 C 119.909 356.705,114.986 354.238,114.867 353.937 C 114.793 353.752,114.413 353.600,114.021 353.600 C 113.629 353.600,112.850 353.240,112.291 352.800 C 111.731 352.360,111.122 351.996,110.937 351.991 C 110.752 351.986,110.150 351.630,109.600 351.200 C 109.050 350.770,108.330 350.413,108.000 350.406 C 107.457 350.396,102.490 347.431,101.317 346.418 C 101.051 346.188,100.678 346.000,100.487 346.000 C 100.296 346.000,99.073 345.171,97.770 344.157 C 96.466 343.144,94.410 341.670,93.200 340.881 C 91.990 340.093,90.719 339.167,90.375 338.824 C 90.031 338.481,88.167 336.940,86.232 335.400 C 84.297 333.860,81.744 331.825,80.557 330.878 C 79.371 329.931,78.400 328.896,78.400 328.578 C 78.400 328.260,78.207 328.000,77.972 328.000 C 77.109 328.000,62.598 312.892,61.839 311.203 C 61.640 310.761,61.347 310.400,61.187 310.400 C 61.028 310.400,60.673 309.860,60.400 309.200 C 60.127 308.540,59.762 308.000,59.590 308.000 C 59.418 308.000,58.641 307.041,57.864 305.870 C 57.086 304.698,56.173 303.509,55.834 303.229 C 55.172 302.679,51.017 296.711,49.953 294.783 C 49.597 294.138,49.124 293.382,48.902 293.105 C 48.680 292.827,48.368 292.177,48.209 291.661 C 48.051 291.144,47.654 290.424,47.328 290.061 C 46.518 289.158,44.113 284.988,43.769 283.892 C 43.616 283.401,43.155 282.571,42.745 282.046 C 42.335 281.521,42.000 280.767,42.000 280.370 C 42.000 279.972,41.820 279.536,41.601 279.401 C 41.382 279.265,40.736 278.129,40.167 276.877 C 39.597 275.625,38.787 273.934,38.366 273.121 C 37.945 272.307,37.600 271.362,37.600 271.019 C 37.600 270.677,37.240 269.725,36.800 268.904 C 36.360 268.084,36.000 267.088,36.000 266.692 C 36.000 266.296,35.740 265.573,35.422 265.086 C 34.801 264.136,31.869 255.408,31.415 253.158 C 31.264 252.411,30.899 251.260,30.605 250.600 C 30.310 249.940,29.940 248.500,29.783 247.400 C 29.625 246.300,29.249 244.914,28.948 244.320 C 28.647 243.726,28.400 242.281,28.400 241.109 C 28.400 239.750,28.153 238.626,27.719 238.006 C 27.240 237.322,26.989 235.962,26.873 233.417 C 26.782 231.428,26.555 229.610,26.369 229.378 C 24.933 227.584,24.691 187.579,26.100 184.839 C 26.591 183.884,26.805 182.509,26.818 180.239 C 26.828 178.251,27.081 176.382,27.472 175.400 C 27.823 174.520,28.194 172.816,28.297 171.613 C 28.400 170.411,28.715 169.241,28.997 169.013 C 29.280 168.786,29.628 167.495,29.770 166.144 C 29.913 164.793,30.383 162.682,30.815 161.454 C 31.247 160.225,31.600 158.868,31.600 158.439 C 31.600 158.009,31.870 157.387,32.200 157.057 C 32.530 156.727,32.800 156.095,32.800 155.653 C 32.800 154.562,34.793 148.392,35.462 147.411 C 35.758 146.977,36.000 146.307,36.000 145.922 C 36.000 145.279,36.365 144.354,38.416 139.800 C 39.257 137.932,42.686 130.876,43.178 130.000 C 43.363 129.670,43.716 128.950,43.962 128.400 C 44.207 127.850,44.766 126.860,45.203 126.200 C 45.640 125.540,46.196 124.505,46.438 123.900 C 46.680 123.295,47.046 122.800,47.252 122.800 C 47.457 122.800,47.704 122.575,47.801 122.300 C 48.278 120.940,48.885 119.687,49.594 118.600 C 50.024 117.940,50.656 116.905,50.998 116.300 C 52.192 114.189,56.128 108.800,56.475 108.800 C 56.668 108.800,56.940 108.485,57.081 108.100 C 57.313 107.464,57.909 106.634,59.914 104.151 C 60.291 103.684,60.870 102.896,61.200 102.400 C 61.716 101.623,63.510 99.537,69.410 92.852 C 70.064 92.110,70.821 91.300,71.091 91.052 C 71.361 90.803,74.033 88.215,77.028 85.300 C 80.023 82.385,82.628 80.000,82.816 80.000 C 83.005 80.000,83.663 79.522,84.279 78.938 C 86.514 76.819,94.928 70.800,95.655 70.800 C 96.065 70.800,96.400 70.558,96.400 70.263 C 96.400 69.365,102.635 65.173,107.877 62.548 C 109.485 61.743,110.800 60.931,110.800 60.742 C 110.800 60.554,111.096 60.400,111.459 60.400 C 111.821 60.400,113.036 59.803,114.159 59.073 C 115.281 58.343,118.180 56.889,120.600 55.842 C 126.320 53.367,127.045 53.048,129.244 52.043 C 130.258 51.579,131.384 51.200,131.745 51.200 C 132.107 51.200,133.075 50.840,133.896 50.400 C 134.716 49.960,135.803 49.600,136.310 49.600 C 136.817 49.600,137.938 49.240,138.800 48.800 C 139.662 48.360,140.946 48.000,141.653 48.000 C 142.359 48.000,143.259 47.709,143.652 47.353 C 144.046 46.997,145.230 46.609,146.284 46.492 C 147.338 46.375,148.560 46.050,149.000 45.771 C 149.440 45.491,150.700 45.144,151.800 44.999 C 152.900 44.854,154.610 44.488,155.600 44.186 C 158.497 43.300,162.492 43.115,163.624 43.815 M76.629 215.953 C 76.183 216.675,76.356 269.716,76.806 270.166 C 77.304 270.664,129.308 270.802,130.511 270.308 C 131.277 269.994,131.438 217.277,130.676 216.100 C 130.289 215.501,76.998 215.356,76.629 215.953 M149.700 215.896 L 147.600 216.042 147.600 242.607 C 147.600 272.638,147.328 270.309,150.771 269.758 C 151.650 269.618,152.691 269.632,153.085 269.790 C 154.461 270.342,195.600 270.255,195.600 269.700 C 195.600 269.425,195.390 269.200,195.133 269.200 C 194.877 269.200,194.789 269.078,194.938 268.928 C 195.088 268.779,195.748 269.055,196.407 269.542 C 197.359 270.246,197.766 270.339,198.402 269.999 C 198.940 269.711,199.442 269.701,199.945 269.970 C 200.477 270.255,200.905 270.211,201.445 269.817 C 202.543 269.014,202.864 218.281,201.781 216.628 L 201.124 215.625 176.462 215.688 C 162.898 215.723,150.855 215.816,149.700 215.896 " stroke="none" fill="#fbfbfb" fill-rule="evenodd"></path><path id="path3" d="M149.956 143.508 C 148.011 143.619,147.651 143.770,147.256 144.637 C 146.536 146.217,146.615 197.995,147.339 198.984 C 147.849 199.681,149.101 199.732,170.241 199.916 C 196.143 200.141,200.393 199.964,200.413 198.663 C 200.438 197.081,201.961 195.659,202.638 196.585 C 203.123 197.247,203.195 194.053,203.160 173.376 C 203.128 154.001,202.822 141.909,202.456 145.562 C 202.412 146.001,202.225 145.966,201.604 145.403 C 200.875 144.744,200.863 144.642,201.463 144.203 C 202.706 143.295,163.065 142.760,149.956 143.508 M149.600 144.800 C 149.600 145.020,149.240 145.200,148.800 145.200 C 148.360 145.200,148.000 145.020,148.000 144.800 C 148.000 144.580,148.360 144.400,148.800 144.400 C 149.240 144.400,149.600 144.580,149.600 144.800 " stroke="none" fill="#ed8335" fill-rule="evenodd"></path><path id="path4" d="M216.480 42.880 C 215.762 43.598,215.901 45.085,216.743 45.677 C 217.151 45.965,217.623 46.650,217.792 47.200 C 217.961 47.750,218.437 48.522,218.850 48.916 C 219.262 49.309,219.600 49.839,219.600 50.094 C 219.600 50.348,220.033 51.016,220.563 51.578 C 221.093 52.140,221.858 53.175,222.263 53.878 C 223.340 55.746,225.164 58.340,226.888 60.456 C 227.719 61.476,228.400 62.483,228.400 62.694 C 228.400 62.904,228.760 63.402,229.200 63.800 C 229.640 64.198,230.000 64.668,230.000 64.844 C 230.000 65.145,231.387 67.378,232.500 68.870 C 233.090 69.660,233.392 70.107,235.828 73.785 C 237.435 76.213,238.302 77.394,240.008 79.485 C 240.225 79.752,240.612 80.427,240.866 80.985 C 241.120 81.543,241.480 82.000,241.664 82.000 C 241.849 82.000,242.000 82.276,242.000 82.613 C 242.000 82.949,242.265 83.327,242.589 83.451 C 242.913 83.576,243.621 84.605,244.162 85.739 C 245.144 87.796,245.800 88.770,247.500 90.697 C 247.995 91.258,248.400 91.890,248.400 92.101 C 248.400 92.313,249.118 93.411,249.996 94.543 C 250.874 95.674,251.732 96.780,251.903 97.000 C 252.249 97.446,255.176 101.837,255.800 102.847 C 256.705 104.311,257.861 105.934,259.679 108.291 C 260.736 109.662,261.600 110.902,261.600 111.048 C 261.600 111.443,264.857 116.536,265.406 117.000 C 265.667 117.220,266.477 118.345,267.207 119.500 C 267.937 120.655,268.672 121.600,268.840 121.600 C 269.009 121.600,269.274 122.005,269.430 122.500 C 269.587 122.995,270.319 124.139,271.057 125.041 C 271.796 125.944,272.400 126.797,272.400 126.937 C 272.400 127.077,273.138 128.228,274.039 129.496 C 274.941 130.763,275.976 132.294,276.339 132.897 C 276.703 133.501,277.222 133.996,277.492 133.997 C 277.763 133.999,278.102 134.495,278.245 135.100 C 278.388 135.705,278.800 136.560,279.160 137.000 C 280.050 138.087,283.832 143.609,286.200 147.278 C 288.123 150.258,289.456 152.000,289.813 152.000 C 290.048 152.000,290.467 152.630,290.746 153.400 C 291.024 154.170,291.420 154.800,291.626 154.800 C 291.832 154.800,292.000 154.950,292.000 155.132 C 292.000 155.315,293.305 157.403,294.900 159.773 C 296.495 162.142,297.980 164.378,298.200 164.740 C 298.420 165.103,298.699 165.490,298.819 165.600 C 298.940 165.710,299.539 166.666,300.150 167.725 C 300.762 168.783,301.514 169.746,301.821 169.864 C 302.129 169.982,302.622 170.555,302.917 171.139 C 303.875 173.034,304.579 174.172,305.763 175.738 C 307.634 178.210,308.800 180.007,308.800 180.418 C 308.800 180.628,308.951 180.800,309.135 180.800 C 309.319 180.800,310.762 182.735,312.342 185.100 C 313.921 187.465,315.746 190.120,316.398 191.000 C 317.050 191.880,317.762 193.005,317.982 193.500 C 318.201 193.995,318.565 194.400,318.790 194.400 C 319.016 194.400,319.200 194.579,319.200 194.798 C 319.200 195.409,325.202 204.128,326.050 204.749 C 327.103 205.519,326.983 206.890,325.762 208.030 C 325.191 208.564,324.452 209.523,324.119 210.162 C 323.787 210.802,323.355 211.522,323.159 211.762 C 321.677 213.582,319.600 216.661,319.600 217.037 C 319.600 217.289,318.933 218.257,318.117 219.187 C 316.627 220.888,316.436 221.164,315.040 223.648 C 314.622 224.391,313.677 225.791,312.940 226.758 C 312.203 227.724,311.600 228.740,311.600 229.015 C 311.600 229.290,311.336 229.616,311.013 229.740 C 310.691 229.863,309.872 230.918,309.194 232.082 C 307.871 234.357,305.946 237.143,304.007 239.592 C 303.343 240.430,302.800 241.232,302.800 241.375 C 302.800 241.517,302.110 242.571,301.267 243.717 C 298.626 247.307,296.960 249.774,296.688 250.500 C 296.543 250.885,296.261 251.200,296.061 251.200 C 295.861 251.200,295.460 251.785,295.171 252.500 C 294.882 253.215,294.484 253.911,294.287 254.046 C 294.089 254.181,293.719 254.644,293.464 255.074 C 291.922 257.675,290.516 259.791,289.956 260.353 C 289.110 261.203,286.403 265.106,286.389 265.496 C 286.383 265.663,285.618 266.824,284.689 268.076 C 283.760 269.328,282.370 271.269,281.600 272.391 C 280.830 273.512,279.795 274.944,279.300 275.572 C 278.805 276.201,278.400 277.095,278.400 277.558 C 278.400 278.021,278.157 278.400,277.860 278.400 C 277.563 278.400,276.176 280.155,274.778 282.300 C 273.380 284.445,271.643 286.939,270.918 287.841 C 270.193 288.744,269.600 289.591,269.600 289.723 C 269.600 290.122,267.742 292.853,265.466 295.800 C 263.847 297.898,261.600 301.466,261.600 301.941 C 261.600 302.194,261.416 302.400,261.190 302.400 C 260.965 302.400,260.609 302.850,260.400 303.400 C 260.191 303.950,259.847 304.400,259.637 304.400 C 259.426 304.400,259.139 304.763,258.998 305.207 C 258.857 305.651,258.203 306.596,257.545 307.307 C 256.886 308.018,256.100 309.181,255.798 309.891 C 255.496 310.601,255.060 311.411,254.830 311.691 C 253.279 313.579,252.248 315.013,250.249 318.059 C 249.001 319.962,247.715 321.739,247.390 322.008 C 247.066 322.278,246.800 322.675,246.800 322.891 C 246.800 323.108,246.350 323.819,245.800 324.473 C 245.250 325.127,244.800 325.918,244.800 326.231 C 244.800 326.544,244.614 326.800,244.387 326.800 C 244.161 326.800,243.864 327.115,243.728 327.500 C 243.592 327.885,243.171 328.560,242.792 329.000 C 242.000 329.920,237.685 336.121,236.200 338.473 C 235.616 339.398,232.666 343.732,232.302 344.200 C 232.131 344.420,231.219 345.770,230.276 347.200 C 229.333 348.630,227.900 350.700,227.091 351.800 C 226.281 352.900,225.130 354.610,224.533 355.600 C 223.936 356.590,222.691 358.390,221.767 359.600 C 220.843 360.810,219.792 362.340,219.431 363.000 C 219.071 363.660,218.466 364.662,218.088 365.226 C 215.524 369.051,215.579 368.914,216.276 369.684 C 217.125 370.622,218.707 370.589,220.200 369.600 C 221.050 369.037,222.078 368.805,223.726 368.803 C 225.093 368.801,226.824 368.484,227.926 368.034 C 228.957 367.612,230.768 367.168,231.951 367.046 C 233.133 366.925,234.522 366.550,235.037 366.213 C 235.551 365.876,236.473 365.596,237.086 365.591 C 237.699 365.586,238.985 365.226,239.944 364.791 C 240.903 364.356,242.078 364.000,242.555 364.000 C 243.032 364.000,243.777 363.753,244.211 363.450 C 244.645 363.148,245.748 362.775,246.663 362.621 C 247.578 362.468,248.658 362.091,249.063 361.784 C 249.468 361.477,250.148 361.220,250.574 361.213 C 250.999 361.206,252.124 360.840,253.074 360.400 C 254.023 359.960,255.577 359.240,256.526 358.800 C 257.476 358.360,258.441 358.000,258.672 358.000 C 258.903 358.000,259.521 357.667,260.046 357.261 C 260.571 356.855,261.539 356.390,262.198 356.229 C 262.857 356.068,263.613 355.755,263.879 355.534 C 264.416 355.088,265.061 354.736,271.367 351.441 C 275.343 349.363,276.909 348.361,278.890 346.625 C 279.269 346.292,280.049 345.903,280.622 345.759 C 281.195 345.615,281.759 345.250,281.875 344.949 C 281.991 344.647,282.234 344.400,282.415 344.400 C 282.948 344.400,287.277 341.392,288.861 339.921 C 289.664 339.175,290.796 338.348,291.376 338.084 C 291.956 337.820,292.648 337.419,292.915 337.194 C 293.182 336.969,293.850 336.414,294.400 335.960 C 294.950 335.505,296.562 334.114,297.983 332.867 C 299.404 331.620,301.474 329.810,302.583 328.843 C 303.692 327.877,304.888 326.797,305.240 326.443 C 305.592 326.090,306.402 325.323,307.040 324.740 C 308.222 323.659,311.806 319.808,316.684 314.377 C 318.178 312.714,319.934 310.554,320.588 309.577 C 321.814 307.743,324.773 303.960,325.270 303.591 C 325.738 303.245,327.600 300.390,327.600 300.020 C 327.600 299.831,328.185 298.948,328.900 298.059 C 330.598 295.946,332.400 293.029,332.400 292.392 C 332.400 292.115,332.655 291.688,332.966 291.444 C 333.278 291.200,334.324 289.560,335.292 287.800 C 336.260 286.040,337.258 284.240,337.511 283.800 C 338.258 282.499,340.000 278.411,340.000 277.960 C 340.000 277.730,340.279 277.264,340.620 276.923 C 340.960 276.582,341.342 275.789,341.468 275.161 C 341.594 274.532,341.945 273.812,342.248 273.560 C 342.552 273.308,342.800 272.698,342.800 272.205 C 342.800 271.712,343.135 270.879,343.545 270.354 C 343.955 269.829,344.427 268.950,344.594 268.400 C 344.761 267.850,345.074 267.180,345.289 266.911 C 345.503 266.643,345.829 265.833,346.012 265.111 C 346.410 263.546,347.469 260.516,348.009 259.400 C 348.650 258.073,350.283 251.933,350.551 249.840 C 350.688 248.763,350.981 247.664,351.200 247.400 C 351.419 247.136,351.706 246.037,351.837 244.960 C 351.968 243.882,352.418 241.964,352.837 240.698 C 353.263 239.415,353.600 237.284,353.600 235.883 C 353.600 234.159,353.851 232.876,354.400 231.800 C 355.086 230.455,355.200 229.441,355.200 224.701 C 355.200 220.198,355.325 218.982,355.871 218.147 C 356.849 216.656,356.811 195.118,355.830 194.033 C 355.321 193.471,355.200 192.283,355.200 187.869 C 355.200 182.933,355.122 182.322,354.400 181.600 C 353.724 180.924,353.599 180.259,353.591 177.300 C 353.585 174.682,353.383 173.361,352.791 172.056 C 352.356 171.097,352.000 169.657,352.000 168.856 C 352.000 168.055,351.652 166.320,351.227 165.000 C 350.417 162.487,349.947 160.702,348.971 156.431 C 348.648 155.018,348.233 153.668,348.050 153.431 C 347.867 153.194,347.520 152.280,347.280 151.400 C 346.555 148.750,345.333 145.573,344.852 145.092 C 344.603 144.843,344.400 144.381,344.400 144.064 C 344.400 143.747,344.062 142.748,343.648 141.844 C 343.234 140.940,342.481 139.249,341.974 138.087 C 341.466 136.925,340.826 135.788,340.551 135.560 C 340.276 135.331,339.936 134.617,339.794 133.972 C 339.652 133.328,339.392 132.800,339.216 132.800 C 339.039 132.800,338.694 132.001,338.448 131.024 C 338.202 130.047,337.846 129.152,337.658 129.036 C 337.470 128.920,336.713 127.649,335.976 126.212 C 335.239 124.775,334.507 123.600,334.350 123.600 C 334.192 123.600,333.942 123.048,333.794 122.373 C 333.646 121.698,333.272 121.049,332.962 120.930 C 332.653 120.812,332.400 120.536,332.400 120.319 C 332.400 120.101,331.995 119.359,331.500 118.670 C 331.005 117.981,330.420 117.106,330.200 116.726 C 329.146 114.907,325.756 110.164,325.307 109.880 C 325.028 109.704,324.800 109.307,324.800 108.997 C 324.800 108.297,316.981 98.445,316.182 98.138 C 315.862 98.015,315.600 97.676,315.600 97.384 C 315.600 97.093,315.240 96.740,314.800 96.600 C 314.360 96.460,314.000 96.117,314.000 95.836 C 314.000 95.171,304.737 85.600,304.093 85.600 C 303.822 85.600,303.600 85.330,303.600 85.000 C 303.600 84.670,303.424 84.400,303.209 84.400 C 302.993 84.400,301.868 83.455,300.709 82.300 C 298.156 79.758,292.613 75.200,292.074 75.200 C 291.860 75.200,291.582 74.930,291.455 74.600 C 291.329 74.270,291.020 74.000,290.770 74.000 C 290.520 74.000,289.820 73.595,289.213 73.100 C 288.607 72.605,287.698 71.930,287.193 71.600 C 286.689 71.270,285.993 70.685,285.649 70.300 C 285.304 69.915,284.816 69.600,284.563 69.600 C 284.311 69.600,283.225 68.925,282.151 68.100 C 280.024 66.467,279.787 66.314,276.118 64.206 C 274.752 63.422,273.535 62.619,273.413 62.421 C 273.291 62.223,272.665 61.946,272.023 61.805 C 271.381 61.664,270.645 61.295,270.387 60.985 C 270.130 60.675,269.308 60.306,268.560 60.166 C 267.789 60.021,267.200 59.671,267.200 59.355 C 267.200 59.050,266.975 58.800,266.700 58.799 C 266.425 58.798,265.140 58.159,263.845 57.378 C 262.550 56.597,260.979 55.856,260.354 55.731 C 259.729 55.606,259.011 55.254,258.757 54.948 C 258.504 54.643,257.611 54.283,256.773 54.149 C 255.935 54.015,255.161 53.675,255.053 53.393 C 254.944 53.111,254.123 52.756,253.228 52.605 C 252.333 52.453,251.600 52.174,251.600 51.983 C 251.600 51.792,250.925 51.512,250.100 51.360 C 249.275 51.207,247.973 50.749,247.206 50.341 C 246.439 49.934,245.224 49.600,244.506 49.600 C 243.733 49.600,242.873 49.273,242.400 48.800 C 241.856 48.256,241.067 48.000,239.931 48.000 C 238.944 48.000,237.966 47.731,237.536 47.342 C 237.135 46.980,235.861 46.598,234.704 46.493 C 233.547 46.388,232.329 46.066,231.998 45.778 C 231.667 45.489,230.407 45.137,229.198 44.994 C 227.989 44.851,226.321 44.479,225.492 44.167 C 224.662 43.855,222.839 43.600,221.441 43.600 C 219.668 43.600,218.747 43.418,218.400 43.000 C 217.799 42.276,217.126 42.234,216.480 42.880 M158.800 43.465 C 158.030 43.559,156.590 43.883,155.600 44.186 C 154.610 44.488,152.900 44.854,151.800 44.999 C 150.700 45.144,149.440 45.491,149.000 45.771 C 148.560 46.050,147.338 46.375,146.284 46.492 C 145.230 46.609,144.046 46.997,143.652 47.353 C 143.259 47.709,142.359 48.000,141.653 48.000 C 140.946 48.000,139.662 48.360,138.800 48.800 C 137.938 49.240,136.817 49.600,136.310 49.600 C 135.803 49.600,134.716 49.960,133.896 50.400 C 133.075 50.840,132.107 51.200,131.745 51.200 C 131.384 51.200,130.258 51.579,129.244 52.043 C 127.045 53.048,126.320 53.367,120.600 55.842 C 118.180 56.889,115.281 58.343,114.159 59.073 C 113.036 59.803,111.821 60.400,111.459 60.400 C 111.096 60.400,110.800 60.554,110.800 60.742 C 110.800 60.931,109.485 61.743,107.877 62.548 C 102.635 65.173,96.400 69.365,96.400 70.263 C 96.400 70.558,96.065 70.800,95.655 70.800 C 94.928 70.800,86.514 76.819,84.279 78.938 C 83.663 79.522,83.005 80.000,82.816 80.000 C 82.628 80.000,80.023 82.385,77.028 85.300 C 74.033 88.215,71.361 90.803,71.091 91.052 C 70.821 91.300,70.064 92.110,69.410 92.852 C 63.510 99.537,61.716 101.623,61.200 102.400 C 60.870 102.896,60.291 103.684,59.914 104.151 C 57.909 106.634,57.313 107.464,57.081 108.100 C 56.940 108.485,56.668 108.800,56.475 108.800 C 56.128 108.800,52.192 114.189,50.998 116.300 C 50.656 116.905,50.024 117.940,49.594 118.600 C 48.885 119.687,48.278 120.940,47.801 122.300 C 47.704 122.575,47.457 122.800,47.252 122.800 C 47.046 122.800,46.680 123.295,46.438 123.900 C 46.196 124.505,45.640 125.540,45.203 126.200 C 44.766 126.860,44.207 127.850,43.962 128.400 C 43.716 128.950,43.363 129.670,43.178 130.000 C 42.686 130.876,39.257 137.932,38.416 139.800 C 36.365 144.354,36.000 145.279,36.000 145.922 C 36.000 146.307,35.758 146.977,35.462 147.411 C 34.793 148.392,32.800 154.562,32.800 155.653 C 32.800 156.095,32.530 156.727,32.200 157.057 C 31.870 157.387,31.600 158.009,31.600 158.439 C 31.600 158.868,31.247 160.225,30.815 161.454 C 30.383 162.682,29.913 164.793,29.770 166.144 C 29.628 167.495,29.280 168.786,28.997 169.013 C 28.715 169.241,28.400 170.411,28.297 171.613 C 28.194 172.816,27.823 174.520,27.472 175.400 C 27.081 176.382,26.828 178.251,26.818 180.239 C 26.805 182.509,26.591 183.884,26.100 184.839 C 24.691 187.579,24.933 227.584,26.369 229.378 C 26.555 229.610,26.782 231.428,26.873 233.417 C 26.989 235.962,27.240 237.322,27.719 238.006 C 28.153 238.626,28.400 239.750,28.400 241.109 C 28.400 242.281,28.647 243.726,28.948 244.320 C 29.249 244.914,29.625 246.300,29.783 247.400 C 29.940 248.500,30.310 249.940,30.605 250.600 C 30.899 251.260,31.264 252.411,31.415 253.158 C 31.869 255.408,34.801 264.136,35.422 265.086 C 35.740 265.573,36.000 266.296,36.000 266.692 C 36.000 267.088,36.360 268.084,36.800 268.904 C 37.240 269.725,37.600 270.677,37.600 271.019 C 37.600 271.362,37.945 272.307,38.366 273.121 C 38.787 273.934,39.597 275.625,40.167 276.877 C 40.736 278.129,41.382 279.265,41.601 279.401 C 41.820 279.536,42.000 279.972,42.000 280.370 C 42.000 280.767,42.335 281.521,42.745 282.046 C 43.155 282.571,43.616 283.401,43.769 283.892 C 44.113 284.988,46.518 289.158,47.328 290.061 C 47.654 290.424,48.051 291.144,48.209 291.661 C 48.368 292.177,48.680 292.827,48.902 293.105 C 49.124 293.382,49.597 294.138,49.953 294.783 C 51.017 296.711,55.172 302.679,55.834 303.229 C 56.173 303.509,57.086 304.698,57.864 305.870 C 58.641 307.041,59.418 308.000,59.590 308.000 C 59.762 308.000,60.127 308.540,60.400 309.200 C 60.673 309.860,61.028 310.400,61.187 310.400 C 61.347 310.400,61.640 310.761,61.839 311.203 C 62.598 312.892,77.109 328.000,77.972 328.000 C 78.207 328.000,78.400 328.260,78.400 328.578 C 78.400 328.896,79.371 329.931,80.557 330.878 C 81.744 331.825,84.297 333.860,86.232 335.400 C 88.167 336.940,90.031 338.481,90.375 338.824 C 90.719 339.167,91.990 340.093,93.200 340.881 C 94.410 341.670,96.466 343.144,97.770 344.157 C 99.073 345.171,100.296 346.000,100.487 346.000 C 100.678 346.000,101.051 346.188,101.317 346.418 C 102.490 347.431,107.457 350.396,108.000 350.406 C 108.330 350.413,109.050 350.770,109.600 351.200 C 110.150 351.630,110.752 351.986,110.937 351.991 C 111.122 351.996,111.731 352.360,112.291 352.800 C 112.850 353.240,113.629 353.600,114.021 353.600 C 114.413 353.600,114.793 353.752,114.867 353.937 C 114.986 354.238,119.909 356.705,124.800 358.913 C 125.790 359.360,126.909 359.876,127.287 360.058 C 127.665 360.241,129.735 360.951,131.887 361.635 C 134.039 362.320,136.367 363.132,137.060 363.440 C 137.754 363.748,138.744 364.001,139.260 364.003 C 139.777 364.004,140.740 364.363,141.400 364.800 C 142.060 365.237,143.194 365.596,143.920 365.597 C 144.646 365.599,145.780 365.880,146.441 366.221 C 147.102 366.563,148.578 366.951,149.722 367.084 C 150.865 367.217,152.196 367.582,152.679 367.895 C 153.162 368.208,155.070 368.602,156.918 368.771 C 158.765 368.939,160.460 369.190,160.683 369.328 C 161.854 370.051,164.278 368.315,165.798 365.665 C 166.639 364.199,167.928 362.209,168.663 361.242 C 169.398 360.276,170.000 359.251,170.000 358.965 C 170.000 358.679,170.318 358.210,170.707 357.923 C 171.096 357.635,171.714 356.950,172.081 356.400 C 172.448 355.850,173.569 354.230,174.572 352.800 C 175.575 351.370,176.396 350.065,176.398 349.900 C 176.399 349.735,176.715 349.253,177.100 348.829 C 178.379 347.420,178.800 346.837,178.800 346.479 C 178.800 346.284,179.155 345.802,179.590 345.409 C 180.024 345.016,180.492 344.340,180.629 343.908 C 180.767 343.475,181.221 342.779,181.639 342.361 C 182.058 341.942,182.400 341.252,182.400 340.827 C 182.400 340.402,182.760 339.940,183.200 339.800 C 183.640 339.660,184.000 339.303,184.000 339.006 C 184.000 338.710,184.135 338.407,184.300 338.333 C 184.465 338.260,184.977 337.660,185.438 337.000 C 187.931 333.431,190.653 329.423,191.036 328.760 C 191.275 328.345,191.770 327.675,192.136 327.271 C 192.501 326.867,192.800 326.301,192.800 326.012 C 192.800 325.723,193.577 324.567,194.527 323.443 C 196.461 321.156,199.200 317.114,199.200 316.547 C 199.200 316.344,199.535 315.891,199.944 315.540 C 200.354 315.190,201.382 313.845,202.230 312.551 C 203.078 311.258,204.003 310.056,204.286 309.880 C 204.569 309.704,204.800 309.327,204.800 309.041 C 204.800 308.756,205.160 308.107,205.600 307.600 C 206.040 307.093,206.400 306.558,206.400 306.411 C 206.400 306.132,209.137 302.248,210.082 301.185 C 210.383 300.847,211.061 299.857,211.589 298.985 C 212.414 297.621,213.262 296.438,214.752 294.575 C 214.939 294.341,215.322 293.711,215.603 293.175 C 216.467 291.527,218.895 287.886,220.282 286.159 C 221.007 285.256,221.600 284.333,221.600 284.108 C 221.600 283.882,221.866 283.478,222.190 283.208 C 222.715 282.772,225.389 278.969,228.485 274.253 C 229.082 273.344,229.712 272.411,229.885 272.181 C 230.453 271.424,231.589 269.422,232.087 268.300 C 232.356 267.695,232.786 267.200,233.043 267.200 C 233.300 267.200,234.233 266.075,235.116 264.700 C 236.971 261.812,239.849 257.687,240.649 256.769 C 240.952 256.421,241.200 255.921,241.200 255.657 C 241.200 255.393,241.875 254.291,242.700 253.208 C 244.970 250.230,246.538 247.990,247.160 246.838 C 247.469 246.267,247.964 245.656,248.260 245.480 C 248.557 245.304,248.800 244.899,248.800 244.580 C 248.800 244.261,249.115 243.682,249.500 243.293 C 250.898 241.879,253.600 238.284,253.600 237.837 C 253.600 237.584,253.960 237.070,254.400 236.693 C 254.840 236.316,255.200 235.736,255.200 235.404 C 255.200 235.072,255.335 234.799,255.500 234.797 C 255.665 234.796,256.172 234.211,256.626 233.497 C 257.081 232.784,259.061 229.814,261.026 226.898 C 262.992 223.982,264.891 221.060,265.246 220.405 C 265.601 219.750,266.508 218.446,267.262 217.507 C 269.290 214.982,271.600 211.648,271.600 211.248 C 271.600 211.055,271.848 210.692,272.152 210.440 C 272.455 210.188,273.188 209.282,273.781 208.427 L 274.858 206.873 273.920 205.136 C 272.777 203.023,271.734 201.390,270.511 199.800 C 269.262 198.177,268.997 197.789,267.151 194.900 C 266.695 194.185,266.178 193.600,266.004 193.600 C 265.829 193.600,265.577 193.164,265.443 192.631 C 265.310 192.098,264.570 190.836,263.800 189.827 C 263.030 188.818,262.400 187.824,262.400 187.616 C 262.400 187.409,262.169 187.096,261.886 186.920 C 261.603 186.744,260.722 185.610,259.929 184.400 C 259.136 183.190,258.108 181.857,257.644 181.438 C 257.180 181.019,256.797 180.479,256.793 180.238 C 256.786 179.822,255.097 177.101,253.802 175.419 C 253.471 174.989,253.200 174.489,253.200 174.307 C 253.200 174.125,252.525 173.107,251.700 172.044 C 250.875 170.981,249.930 169.701,249.600 169.200 C 249.270 168.699,248.624 167.819,248.164 167.244 C 247.704 166.670,246.695 165.210,245.922 164.000 C 245.149 162.790,244.131 161.457,243.658 161.038 C 243.186 160.619,242.800 160.062,242.800 159.800 C 242.800 159.538,242.440 158.998,242.000 158.600 C 241.560 158.202,241.200 157.570,241.200 157.196 C 241.200 156.821,240.566 155.685,239.791 154.670 C 239.017 153.656,237.562 151.626,236.558 150.160 C 234.528 147.195,234.440 147.078,233.011 145.442 C 232.455 144.804,232.000 144.039,232.000 143.742 C 232.000 143.444,231.842 143.200,231.649 143.200 C 231.455 143.200,231.079 142.673,230.812 142.029 C 230.545 141.385,230.073 140.760,229.763 140.641 C 229.454 140.522,229.200 140.251,229.200 140.037 C 229.200 139.824,227.895 137.688,226.300 135.291 C 224.705 132.894,223.220 130.654,223.000 130.313 C 221.166 127.471,219.461 125.200,219.161 125.200 C 218.962 125.200,218.800 124.946,218.800 124.636 C 218.800 124.326,218.125 123.192,217.300 122.117 C 216.475 121.041,215.620 119.880,215.400 119.535 C 215.180 119.190,214.280 117.871,213.400 116.604 C 212.520 115.337,211.525 113.818,211.189 113.229 C 210.424 111.885,209.745 111.038,208.100 109.371 C 207.385 108.647,206.800 107.796,206.800 107.481 C 206.800 107.166,206.440 106.450,206.000 105.891 C 205.560 105.331,205.200 104.677,205.200 104.437 C 205.200 104.197,204.885 103.669,204.500 103.265 C 204.115 102.861,203.620 102.252,203.400 101.911 C 202.188 100.038,199.762 96.539,199.409 96.157 C 199.184 95.913,198.550 94.944,198.000 94.003 C 197.450 93.061,196.510 91.731,195.910 91.046 C 194.496 89.429,192.129 86.074,191.505 84.800 C 191.235 84.250,190.066 82.505,188.907 80.921 C 187.748 79.338,186.800 77.943,186.800 77.822 C 186.800 77.438,183.869 73.437,182.915 72.519 C 182.412 72.035,182.000 71.448,182.000 71.215 C 182.000 70.982,181.336 69.849,180.525 68.696 C 179.713 67.543,178.319 65.520,177.425 64.200 C 176.532 62.880,175.710 61.710,175.598 61.600 C 174.870 60.882,173.200 58.375,173.200 58.000 C 173.200 57.628,171.638 55.489,169.197 52.517 C 168.979 52.251,168.800 51.901,168.800 51.738 C 168.800 51.439,166.801 48.369,166.366 48.000 C 166.237 47.890,165.634 46.945,165.027 45.900 C 163.604 43.449,162.496 43.016,158.800 43.465 M224.455 45.028 C 225.063 45.343,226.380 45.600,227.382 45.600 C 228.439 45.600,229.829 45.936,230.696 46.400 C 231.516 46.840,232.916 47.200,233.805 47.200 C 234.694 47.200,235.799 47.464,236.260 47.787 C 236.721 48.110,237.886 48.495,238.849 48.642 C 239.812 48.789,240.851 49.110,241.159 49.355 C 241.466 49.600,242.546 50.009,243.559 50.265 C 245.827 50.837,248.479 51.798,250.626 52.823 C 251.521 53.250,252.572 53.600,252.963 53.600 C 253.354 53.600,254.131 53.960,254.691 54.400 C 255.250 54.840,256.008 55.200,256.374 55.200 C 256.740 55.200,257.211 55.353,257.420 55.540 C 257.629 55.727,258.600 56.189,259.577 56.567 C 260.554 56.946,261.825 57.591,262.401 58.001 C 262.977 58.411,263.978 58.873,264.624 59.027 C 265.271 59.181,266.070 59.533,266.400 59.808 C 266.730 60.084,267.990 60.835,269.200 61.478 C 270.410 62.122,272.164 63.134,273.098 63.728 C 274.033 64.322,275.833 65.368,277.098 66.052 C 278.364 66.736,280.056 67.814,280.858 68.448 C 281.659 69.081,282.436 69.600,282.584 69.600 C 282.852 69.600,285.617 71.574,286.000 72.038 C 286.110 72.171,286.581 72.481,287.047 72.726 C 293.317 76.025,309.571 91.648,321.038 105.400 C 321.588 106.060,323.531 108.850,325.354 111.600 C 327.178 114.350,329.194 117.385,329.835 118.343 C 331.388 120.667,333.632 124.413,335.379 127.600 C 336.164 129.030,336.965 130.470,337.160 130.800 C 337.355 131.130,337.712 131.850,337.954 132.400 C 338.196 132.950,338.551 133.670,338.743 134.000 C 339.530 135.354,341.200 139.111,341.200 139.527 C 341.200 139.773,341.879 141.375,342.709 143.087 C 343.539 144.799,345.186 149.170,346.369 152.800 C 347.553 156.430,348.770 160.004,349.074 160.742 C 349.378 161.479,349.736 162.919,349.870 163.942 C 350.003 164.964,350.359 166.290,350.661 166.890 C 350.963 167.489,351.323 169.109,351.461 170.490 C 351.599 171.870,351.947 173.467,352.233 174.037 C 352.520 174.607,352.879 176.497,353.031 178.237 C 353.182 179.977,353.507 181.652,353.753 181.961 C 354.007 182.279,354.307 185.044,354.447 188.361 C 354.584 191.572,354.918 195.910,355.191 198.000 C 355.761 202.365,355.520 215.767,354.831 217.997 C 354.594 218.766,354.400 221.651,354.400 224.408 C 354.400 228.166,354.253 229.632,353.814 230.259 C 353.485 230.728,353.109 232.570,352.959 234.448 C 352.811 236.292,352.469 238.250,352.199 238.800 C 351.929 239.350,351.613 240.902,351.497 242.249 C 351.380 243.596,351.017 245.126,350.690 245.649 C 350.363 246.172,349.990 247.564,349.861 248.742 C 349.733 249.921,349.455 251.093,349.244 251.347 C 349.033 251.602,348.599 252.888,348.279 254.205 C 347.706 256.570,345.211 264.083,344.095 266.800 C 343.200 268.981,341.989 271.701,341.423 272.800 C 341.140 273.350,340.791 274.295,340.647 274.900 C 340.503 275.505,340.222 276.000,340.024 276.000 C 339.826 276.000,339.536 276.585,339.380 277.300 C 339.224 278.015,338.759 279.029,338.348 279.554 C 337.937 280.079,337.600 280.665,337.600 280.857 C 337.600 281.050,336.655 282.880,335.500 284.924 C 334.345 286.968,333.130 289.127,332.800 289.721 C 332.215 290.774,328.104 297.401,326.051 300.600 C 325.486 301.480,324.439 302.870,323.723 303.689 C 323.008 304.508,321.392 306.578,320.134 308.289 C 317.770 311.503,317.549 311.761,312.203 317.542 C 302.549 327.983,292.177 336.879,281.612 343.781 C 279.968 344.855,278.438 345.893,278.212 346.088 C 277.985 346.283,277.231 346.748,276.536 347.121 C 275.840 347.495,274.400 348.302,273.336 348.915 C 268.790 351.533,267.206 352.398,263.800 354.121 C 260.692 355.693,257.624 357.129,254.600 358.427 C 252.165 359.472,246.434 361.587,245.400 361.822 C 244.740 361.972,243.807 362.340,243.326 362.640 C 242.845 362.939,241.765 363.362,240.926 363.579 C 240.087 363.796,237.780 364.442,235.800 365.015 C 233.820 365.587,231.033 366.236,229.606 366.457 C 228.179 366.678,226.783 367.048,226.505 367.279 C 226.226 367.510,224.460 367.856,222.580 368.046 C 220.699 368.237,218.795 368.589,218.346 368.829 C 217.032 369.532,216.997 368.936,218.239 367.031 C 219.565 364.998,228.620 351.598,231.504 347.400 C 232.562 345.860,234.852 342.530,236.591 340.000 C 238.331 337.470,241.170 333.330,242.900 330.800 C 244.630 328.270,247.836 323.590,250.025 320.400 C 253.929 314.712,256.195 311.401,260.567 305.000 C 261.769 303.240,263.040 301.440,263.390 301.000 C 263.741 300.560,265.336 298.204,266.934 295.764 C 268.533 293.325,270.192 290.870,270.620 290.311 C 271.594 289.040,272.109 288.296,273.941 285.521 C 278.680 278.342,281.082 274.817,282.201 273.400 C 282.896 272.520,284.975 269.550,286.823 266.800 C 288.670 264.050,290.282 261.710,290.405 261.600 C 290.724 261.314,293.394 257.175,293.973 256.070 C 294.241 255.558,294.724 254.838,295.045 254.470 C 296.306 253.024,297.837 251.005,298.600 249.783 C 300.288 247.077,303.609 242.131,304.766 240.600 C 306.799 237.908,310.382 232.789,311.020 231.664 C 311.947 230.031,315.866 224.231,321.198 216.600 C 328.762 205.777,328.522 206.574,325.497 202.342 C 322.998 198.845,321.726 196.993,316.195 188.800 C 313.893 185.390,311.771 182.330,311.480 182.000 C 311.189 181.670,310.061 180.076,308.975 178.458 C 305.237 172.889,304.844 172.309,304.123 171.304 C 303.725 170.750,302.995 169.843,302.500 169.290 C 302.005 168.736,301.600 168.136,301.600 167.957 C 301.600 167.778,300.574 166.139,299.321 164.315 C 295.885 159.317,290.539 151.450,287.400 146.773 C 285.860 144.478,284.375 142.362,284.100 142.072 C 283.825 141.781,283.600 141.420,283.600 141.270 C 283.600 141.120,282.524 139.557,281.209 137.798 C 279.894 136.039,278.814 134.381,278.809 134.114 C 278.804 133.847,278.440 133.435,278.000 133.200 C 277.560 132.965,277.200 132.578,277.200 132.342 C 277.200 132.105,276.338 130.717,275.283 129.256 C 274.229 127.795,272.892 125.790,272.312 124.800 C 271.731 123.810,270.689 122.388,269.995 121.639 C 269.302 120.891,268.570 119.901,268.370 119.439 C 268.170 118.978,267.240 117.498,266.303 116.151 C 265.366 114.805,264.240 113.101,263.800 112.365 C 262.877 110.822,262.469 110.226,259.961 106.749 C 258.349 104.513,256.073 101.246,251.640 94.800 C 250.959 93.810,249.776 92.100,249.011 91.000 C 248.247 89.900,246.693 87.605,245.559 85.900 C 244.424 84.195,243.379 82.800,243.236 82.800 C 243.093 82.800,242.762 82.305,242.502 81.700 C 241.936 80.384,241.503 79.704,239.387 76.808 C 238.500 75.593,237.060 73.520,236.187 72.200 C 235.314 70.880,234.492 69.710,234.359 69.600 C 234.136 69.414,232.923 67.614,227.200 58.967 C 225.256 56.030,223.734 53.812,220.665 49.441 C 220.189 48.764,219.589 48.027,219.331 47.805 C 218.480 47.070,217.606 44.471,218.130 44.234 C 218.923 43.875,223.284 44.423,224.455 45.028 M163.862 46.483 C 164.708 47.629,167.380 51.469,169.800 55.015 C 172.220 58.562,174.698 62.169,175.306 63.032 C 176.703 65.012,178.014 66.926,183.876 75.545 C 186.474 79.365,189.422 83.685,190.426 85.145 C 191.430 86.605,193.235 89.240,194.437 91.000 C 195.638 92.760,197.382 95.161,198.311 96.336 C 199.240 97.511,200.000 98.643,200.000 98.853 C 200.000 99.063,200.765 100.257,201.700 101.508 C 203.755 104.257,204.978 106.165,205.797 107.900 C 206.135 108.615,206.556 109.200,206.734 109.200 C 206.912 109.200,207.503 109.875,208.046 110.700 C 211.339 115.698,215.043 121.020,215.310 121.137 C 215.481 121.212,216.022 122.002,216.511 122.891 C 217.849 125.326,218.038 125.616,220.223 128.620 C 222.411 131.628,223.050 132.546,224.656 135.000 C 225.232 135.880,226.985 138.389,228.552 140.575 C 230.118 142.761,231.940 145.389,232.600 146.414 C 233.923 148.468,237.590 153.883,239.770 157.000 C 240.539 158.100,241.352 159.270,241.575 159.600 C 241.799 159.930,243.329 162.180,244.975 164.600 C 247.956 168.983,249.717 171.561,256.996 182.200 C 259.103 185.280,261.809 189.240,263.009 191.000 C 264.210 192.760,265.729 194.920,266.387 195.800 C 267.045 196.680,267.748 197.760,267.950 198.200 C 268.152 198.640,269.317 200.350,270.539 202.000 C 274.037 206.721,274.721 204.976,262.376 222.800 C 259.363 227.151,251.297 238.986,250.000 240.959 C 249.315 242.001,247.627 244.415,246.301 246.245 C 243.629 249.937,242.400 251.842,242.400 252.295 C 242.400 252.573,242.236 252.800,242.036 252.800 C 241.701 252.800,238.315 257.576,234.721 263.119 C 233.148 265.546,230.742 268.963,229.364 270.729 C 228.904 271.318,228.030 272.610,227.422 273.600 C 226.815 274.590,225.432 276.660,224.351 278.200 C 221.267 282.591,218.667 286.430,217.867 287.771 C 217.465 288.447,216.644 289.630,216.043 290.400 C 215.443 291.170,213.738 293.600,212.255 295.800 C 210.772 298.000,207.938 302.140,205.957 305.000 C 203.976 307.860,202.051 310.721,201.678 311.359 C 201.305 311.996,200.181 313.616,199.180 314.959 C 198.178 316.301,196.273 319.020,194.945 321.000 C 190.872 327.072,186.334 333.717,185.111 335.400 C 184.472 336.280,183.241 338.080,182.377 339.400 C 181.512 340.720,179.814 343.150,178.604 344.800 C 177.393 346.450,176.104 348.340,175.740 349.000 C 175.375 349.660,174.339 351.190,173.438 352.400 C 172.537 353.610,171.620 354.891,171.400 355.247 C 171.180 355.603,170.656 356.413,170.236 357.047 C 169.816 357.681,169.006 358.920,168.436 359.800 C 167.275 361.593,167.185 361.720,165.880 363.400 C 165.367 364.060,164.532 365.288,164.023 366.129 C 162.683 368.345,157.767 368.957,154.571 367.306 C 154.147 367.087,152.827 366.783,151.637 366.632 C 150.448 366.480,149.008 366.121,148.437 365.834 C 147.867 365.546,146.590 365.187,145.600 365.035 C 144.610 364.884,143.440 364.526,143.000 364.240 C 142.560 363.954,141.486 363.588,140.614 363.426 C 139.741 363.264,138.545 362.882,137.956 362.577 C 137.366 362.272,136.148 361.905,135.250 361.762 C 134.351 361.618,133.410 361.253,133.159 360.950 C 132.907 360.648,132.478 360.400,132.203 360.400 C 130.749 360.400,116.907 354.190,111.400 351.066 C 104.855 347.354,100.936 344.994,100.000 344.199 C 99.450 343.732,97.380 342.292,95.400 340.998 C 93.420 339.705,91.075 338.006,90.190 337.223 C 89.304 336.441,87.601 334.990,86.405 334.000 C 75.061 324.611,67.768 317.159,60.200 307.223 C 58.660 305.201,57.209 303.334,56.976 303.073 C 56.743 302.813,55.639 301.250,54.522 299.600 C 53.406 297.950,51.931 295.900,51.246 295.045 C 50.561 294.190,50.000 293.267,50.000 292.994 C 50.000 292.721,49.748 292.289,49.439 292.033 C 49.131 291.777,48.759 291.091,48.613 290.508 C 48.466 289.925,48.026 288.988,47.633 288.424 C 47.240 287.861,45.916 285.484,44.689 283.142 C 43.463 280.801,42.275 278.551,42.050 278.142 C 41.480 277.110,38.400 270.049,38.400 269.774 C 38.400 269.651,37.971 268.616,37.446 267.475 C 36.063 264.467,35.391 262.647,34.168 258.600 C 33.570 256.620,32.837 254.716,32.540 254.369 C 32.243 254.021,32.000 253.115,32.000 252.355 C 32.000 251.594,31.640 249.948,31.200 248.696 C 30.760 247.444,30.400 245.810,30.400 245.064 C 30.400 244.314,30.043 243.254,29.600 242.691 C 29.040 241.978,28.800 241.068,28.800 239.651 C 28.800 238.538,28.549 236.857,28.243 235.914 C 27.936 234.971,27.570 232.580,27.430 230.600 C 27.289 228.620,26.996 226.280,26.778 225.400 C 25.396 219.815,25.544 193.041,26.995 186.192 C 27.320 184.656,27.589 182.269,27.593 180.887 C 27.597 179.505,27.849 177.779,28.153 177.051 C 28.457 176.323,28.835 174.446,28.992 172.880 C 29.157 171.241,29.516 169.836,29.839 169.568 C 30.148 169.312,30.400 168.398,30.400 167.538 C 30.400 166.678,30.684 165.305,31.030 164.487 C 31.377 163.669,31.837 161.926,32.053 160.614 C 32.269 159.301,32.633 158.001,32.862 157.725 C 33.092 157.449,33.426 156.633,33.606 155.911 C 34.183 153.602,36.839 146.282,38.039 143.699 C 38.677 142.323,39.200 141.121,39.200 141.027 C 39.200 140.933,39.989 139.178,40.953 137.128 C 41.917 135.078,42.811 133.130,42.939 132.800 C 43.067 132.470,43.812 131.120,44.595 129.800 C 45.378 128.480,46.359 126.655,46.776 125.744 C 47.193 124.833,47.715 123.976,47.936 123.839 C 48.157 123.703,48.457 123.053,48.601 122.395 C 48.745 121.738,49.019 121.200,49.210 121.200 C 49.400 121.200,49.791 120.775,50.078 120.256 C 50.365 119.736,51.123 118.521,51.763 117.556 C 52.402 116.590,53.745 114.540,54.746 113.000 C 56.926 109.646,59.012 106.864,62.125 103.157 C 62.606 102.584,63.630 101.339,64.400 100.390 C 65.938 98.495,69.088 95.023,73.400 90.468 C 77.059 86.603,84.962 79.597,89.000 76.639 C 90.760 75.350,92.384 74.094,92.609 73.848 C 92.834 73.601,93.302 73.220,93.649 73.000 C 93.996 72.780,95.056 72.060,96.004 71.400 C 100.436 68.315,100.983 67.962,105.000 65.597 C 106.980 64.431,108.744 63.235,108.920 62.939 C 109.096 62.642,109.556 62.400,109.943 62.400 C 110.330 62.400,110.996 62.134,111.424 61.809 C 112.303 61.140,119.778 57.444,123.400 55.887 C 128.924 53.513,133.613 51.600,133.912 51.600 C 134.087 51.600,134.937 51.240,135.800 50.800 C 136.663 50.360,137.787 50.000,138.299 50.000 C 138.810 50.000,139.627 49.747,140.114 49.438 C 140.601 49.130,141.748 48.757,142.663 48.610 C 143.578 48.462,144.658 48.091,145.063 47.784 C 145.468 47.477,146.276 47.220,146.858 47.213 C 147.440 47.206,149.060 46.855,150.458 46.434 C 151.856 46.012,153.945 45.545,155.100 45.396 C 156.254 45.247,157.300 44.962,157.423 44.763 C 157.546 44.563,158.700 44.400,159.986 44.400 L 162.325 44.400 163.862 46.483 M201.291 144.336 C 200.899 144.584,200.957 144.818,201.541 145.347 C 202.238 145.977,202.322 145.980,202.552 145.381 C 202.987 144.247,202.312 143.688,201.291 144.336 M148.000 144.800 C 148.000 145.020,148.360 145.200,148.800 145.200 C 149.240 145.200,149.600 145.020,149.600 144.800 C 149.600 144.580,149.240 144.400,148.800 144.400 C 148.360 144.400,148.000 144.580,148.000 144.800 M201.100 196.989 C 200.050 198.431,200.181 199.600,201.392 199.600 C 202.109 199.600,202.452 199.331,202.628 198.632 C 203.184 196.414,202.250 195.409,201.100 196.989 M76.400 214.912 L 75.400 215.424 75.297 242.861 C 75.212 265.673,75.287 270.374,75.742 270.752 C 76.141 271.083,83.792 271.178,104.044 271.103 L 131.800 271.000 131.908 243.400 C 132.015 215.931,132.012 215.797,131.189 215.121 C 130.095 214.221,78.139 214.024,76.400 214.912 M172.637 214.703 C 155.156 214.776,147.717 214.937,147.337 215.252 C 146.456 215.983,146.550 270.618,147.433 270.957 C 148.259 271.274,201.741 271.274,202.567 270.957 C 203.417 270.631,203.546 216.601,202.700 215.506 C 202.008 214.611,201.038 214.585,172.637 214.703 M130.676 216.100 C 131.438 217.277,131.277 269.994,130.511 270.308 C 129.308 270.802,77.304 270.664,76.806 270.166 C 76.356 269.716,76.183 216.675,76.629 215.953 C 76.998 215.356,130.289 215.501,130.676 216.100 M201.781 216.628 C 202.864 218.281,202.543 269.014,201.445 269.817 C 200.905 270.211,200.477 270.255,199.945 269.970 C 199.442 269.701,198.940 269.711,198.402 269.999 C 197.766 270.339,197.359 270.246,196.407 269.542 C 195.748 269.055,195.088 268.779,194.938 268.928 C 194.789 269.078,194.877 269.200,195.133 269.200 C 195.390 269.200,195.600 269.425,195.600 269.700 C 195.600 270.255,154.461 270.342,153.085 269.790 C 152.691 269.632,151.650 269.618,150.771 269.758 C 147.328 270.309,147.600 272.638,147.600 242.607 L 147.600 216.042 149.700 215.896 C 150.855 215.816,162.898 215.723,176.462 215.688 L 201.124 215.625 201.781 216.628 " stroke="none" fill="#9eadba" fill-rule="evenodd"></path></g></svg>